<svg xmlns="http://www.w3.org/2000/svg" xmlns:xlink="http://www.w3.org/1999/xlink" width="500" zoomAndPan="magnify" viewBox="0 0 375 374.999991" height="500" preserveAspectRatio="xMidYMid meet" version="1.0"><defs><g/><clipPath id="ff18d2f90e"><path d="M 113.550781 204.6875 L 259.941406 204.6875 L 259.941406 205.261719 L 113.550781 205.261719 Z M 259.355469 205.261719 L 259.941406 205.261719 L 259.941406 226.761719 L 259.355469 226.761719 Z M 113.550781 205.261719 L 114.125 205.261719 L 114.125 226.761719 L 113.550781 226.761719 Z M 113.550781 226.761719 L 259.941406 226.761719 L 259.941406 227.347656 L 113.550781 227.347656 Z M 113.550781 226.761719 " clipRule="nonzero"/></clipPath></defs><rect x="-37.5" width="450" fill="#ffffff" y="-37.499999" height="449.999989" fill-opacity="1"/><rect x="-37.5" width="450" fill="#ffffff" y="-37.499999" height="449.999989" fill-opacity="1"/><rect x="-37.5" width="450" fill="#ffffff" y="-37.499999" height="449.999989" fill-opacity="1"/><g clip-path="url(#ff18d2f90e)"><path fill="#181818" d="M 113.550781 204.6875 L 259.992188 204.6875 L 259.992188 227.367188 L 113.550781 227.367188 Z M 113.550781 204.6875 " fill-opacity="1" fillRule="nonzero"/></g><g fill="#181818" fill-opacity="1"><g transform="translate(117.355345, 219.017856)"><g><path d="M 4.039062 -3.578125 L 4.039062 -2.902344 L 6.75 -2.902344 C 6.535156 -1.597656 5.410156 -0.628906 4.050781 -0.628906 C 2.53125 -0.628906 1.304688 -1.84375 1.304688 -3.375 C 1.304688 -4.90625 2.53125 -6.121094 4.050781 -6.121094 C 5.074219 -6.121094 5.972656 -5.570312 6.433594 -4.734375 L 7.054688 -5.085938 C 6.46875 -6.132812 5.34375 -6.839844 4.050781 -6.839844 C 2.125 -6.839844 0.585938 -5.289062 0.585938 -3.375 C 0.585938 -1.460938 2.125 0.0898438 4.050781 0.0898438 C 5.960938 0.0898438 7.515625 -1.460938 7.515625 -3.375 L 7.515625 -3.578125 Z M 4.039062 -3.578125 "/></g></g></g><g fill="#181818" fill-opacity="1"><g transform="translate(132.419271, 219.017856)"><g><path d="M 4.566406 -6.050781 L 4.566406 -6.75 L 0.878906 -6.75 L 0.878906 0 L 4.566406 0 L 4.566406 -0.699219 L 1.597656 -0.699219 L 1.597656 -3.027344 L 4.183594 -3.027344 L 4.183594 -3.722656 L 1.597656 -3.722656 L 1.597656 -6.050781 Z M 4.566406 -6.050781 "/></g></g></g><g fill="#181818" fill-opacity="1"><g transform="translate(144.636926, 219.017856)"><g><path d="M 4.554688 -6.75 L 0.101562 -6.75 L 0.101562 -6.03125 L 1.96875 -6.03125 L 1.96875 0 L 2.6875 0 L 2.6875 -6.03125 L 4.554688 -6.03125 Z M 4.554688 -6.75 "/></g></g></g><g fill="#181818" fill-opacity="1"><g transform="translate(156.26957, 219.017856)"><g/></g></g><g fill="#181818" fill-opacity="1"><g transform="translate(165.955951, 219.017856)"><g><path d="M 0.878906 0 L 1.597656 0 L 1.597656 -6.75 L 0.878906 -6.75 Z M 0.878906 0 "/></g></g></g><g fill="#181818" fill-opacity="1"><g transform="translate(175.394832, 219.017856)"><g><path d="M 5.671875 -6.75 L 5.671875 -1.203125 L 1.496094 -6.75 L 0.820312 -6.75 L 0.820312 0 L 1.542969 0 L 1.542969 -5.546875 L 5.703125 0 L 6.378906 0 L 6.378906 -6.75 Z M 5.671875 -6.75 "/></g></g></g><g fill="#181818" fill-opacity="1"><g transform="translate(189.569998, 219.017856)"><g><path d="M 2.519531 0.0898438 C 3.667969 0.0898438 4.601562 -0.597656 4.601562 -1.777344 C 4.601562 -4.074219 1.316406 -3.511719 1.316406 -5.117188 C 1.316406 -5.792969 1.867188 -6.121094 2.496094 -6.121094 C 3.015625 -6.121094 3.441406 -5.90625 3.710938 -5.523438 L 4.273438 -5.996094 C 3.902344 -6.46875 3.25 -6.839844 2.476562 -6.839844 C 1.441406 -6.839844 0.597656 -6.164062 0.597656 -5.0625 C 0.597656 -2.890625 3.882812 -3.429688 3.882812 -1.753906 C 3.882812 -1.035156 3.285156 -0.628906 2.53125 -0.628906 C 1.765625 -0.628906 1.214844 -1.046875 0.980469 -1.664062 L 0.328125 -1.28125 C 0.675781 -0.449219 1.519531 0.0898438 2.519531 0.0898438 Z M 2.519531 0.0898438 "/></g></g></g><g fill="#181818" fill-opacity="1"><g transform="translate(201.472654, 219.017856)"><g><path d="M 3.238281 -6.75 L 0.820312 -6.75 L 0.820312 0 L 1.542969 0 L 1.542969 -3.003906 L 3.238281 -3.003906 C 4.285156 -3.003906 5.117188 -3.824219 5.117188 -4.871094 C 5.117188 -5.90625 4.285156 -6.75 3.238281 -6.75 Z M 3.171875 -3.691406 L 1.542969 -3.691406 L 1.542969 -6.050781 L 3.171875 -6.050781 C 3.847656 -6.050781 4.398438 -5.578125 4.398438 -4.859375 C 4.398438 -4.117188 3.847656 -3.691406 3.171875 -3.691406 Z M 3.171875 -3.691406 "/></g></g></g><g fill="#181818" fill-opacity="1"><g transform="translate(213.757805, 219.017856)"><g><path d="M 0.878906 0 L 1.597656 0 L 1.597656 -6.75 L 0.878906 -6.75 Z M 0.878906 0 "/></g></g></g><g fill="#181818" fill-opacity="1"><g transform="translate(223.196686, 219.017856)"><g><path d="M 3.554688 -3.082031 C 4.445312 -3.207031 5.117188 -3.949219 5.117188 -4.859375 C 5.117188 -5.917969 4.273438 -6.75 3.238281 -6.75 L 0.820312 -6.75 L 0.820312 0 L 1.542969 0 L 1.542969 -3.046875 L 2.8125 -3.046875 L 4.726562 0 L 5.546875 0 Z M 1.542969 -3.734375 L 1.542969 -6.03125 L 3.195312 -6.03125 C 3.871094 -6.03125 4.398438 -5.558594 4.398438 -4.882812 C 4.398438 -4.195312 3.882812 -3.734375 3.195312 -3.734375 Z M 1.542969 -3.734375 "/></g></g></g><g fill="#181818" fill-opacity="1"><g transform="translate(235.819346, 219.017856)"><g><path d="M 4.566406 -6.050781 L 4.566406 -6.75 L 0.878906 -6.75 L 0.878906 0 L 4.566406 0 L 4.566406 -0.699219 L 1.597656 -0.699219 L 1.597656 -3.027344 L 4.183594 -3.027344 L 4.183594 -3.722656 L 1.597656 -3.722656 L 1.597656 -6.050781 Z M 4.566406 -6.050781 "/></g></g></g><g fill="#181818" fill-opacity="1"><g transform="translate(248.037001, 219.017856)"><g><path d="M 0.820312 0 L 2.667969 0 C 4.523438 0 6.042969 -1.507812 6.042969 -3.375 C 6.042969 -5.242188 4.523438 -6.75 2.667969 -6.75 L 0.820312 -6.75 Z M 1.53125 -0.71875 L 1.53125 -6.03125 L 2.65625 -6.03125 C 4.152344 -6.03125 5.320312 -4.894531 5.320312 -3.375 C 5.320312 -1.855469 4.152344 -0.71875 2.65625 -0.71875 Z M 1.53125 -0.71875 "/></g></g></g><g fill="#181818" fill-opacity="1"><g transform="translate(117.578119, 192.772766)"><g><path d="M 1.203125 0 L 1.203125 -34.359375 L 7.84375 -34.359375 L 7.84375 0 Z M 1.203125 0 "/></g></g></g><g fill="#181818" fill-opacity="1"><g transform="translate(127.657219, 192.772766)"><g><path d="M 1.515625 -34.359375 L 11 -34.359375 C 13.457031 -34.359375 15.296875 -33.675781 16.515625 -32.3125 C 17.742188 -30.957031 18.375 -28.945312 18.40625 -26.28125 L 18.484375 -10.203125 C 18.503906 -6.816406 17.914062 -4.269531 16.71875 -2.5625 C 15.519531 -0.851562 13.535156 0 10.765625 0 L 1.515625 0 Z M 9.640625 -6.078125 C 10.890625 -6.078125 11.515625 -6.691406 11.515625 -7.921875 L 11.515625 -25.640625 C 11.515625 -26.410156 11.453125 -26.988281 11.328125 -27.375 C 11.210938 -27.757812 10.992188 -28.019531 10.671875 -28.15625 C 10.359375 -28.289062 9.867188 -28.359375 9.203125 -28.359375 L 8.4375 -28.359375 L 8.4375 -6.078125 Z M 9.640625 -6.078125 "/></g></g></g><g fill="#181818" fill-opacity="1"><g transform="translate(148.375261, 192.772766)"><g><path d="M 1.515625 0 L 1.515625 -34.359375 L 15.28125 -34.359375 L 15.28125 -27.71875 L 8.515625 -27.71875 L 8.515625 -21.046875 L 15 -21.046875 L 15 -14.5625 L 8.515625 -14.5625 L 8.515625 -6.6875 L 15.71875 -6.6875 L 15.71875 0 Z M 1.515625 0 "/></g></g></g><g fill="#181818" fill-opacity="1"><g transform="translate(165.853622, 192.772766)"><g><path d="M 0.59375 0 L 3.921875 -34.359375 L 15.5625 -34.359375 L 18.84375 0 L 12.3125 0 L 11.84375 -5.5625 L 7.6875 -5.5625 L 7.28125 0 Z M 8.203125 -11.046875 L 11.3125 -11.046875 L 9.796875 -28.515625 L 9.484375 -28.515625 Z M 8.203125 -11.046875 "/></g></g></g><path stroke-linecap="butt" transform="matrix(0.75, 0, 0, 0.75, 195.749992, 149.272769)" fill="none" stroke-linejoin="miter" d="M 2.031261 12.193601 L 14.453137 12.193601 C 17.791679 12.193601 20.218762 13.011309 21.729179 14.641518 C 23.239596 16.276935 23.994804 18.938393 23.994804 22.63631 L 23.994804 24.66756 C 23.994804 29.04256 22.432304 31.657144 19.307304 32.506102 C 21.229179 33.000894 22.578138 34.157144 23.359388 35.969644 C 24.140638 37.782144 24.531263 40.183186 24.531263 43.17277 C 24.531263 48.037353 23.802096 51.730062 22.343763 54.23527 C 20.885429 56.745687 18.255221 58.000896 14.453137 58.000896 L 2.031261 58.000896 Z M 12.84897 29.422769 C 13.63022 29.422769 14.166679 29.125894 14.453137 28.537352 C 14.739595 27.943602 14.88022 27.120685 14.88022 26.063394 L 14.88022 21.464435 C 14.88022 19.974852 14.22397 19.224851 12.901054 19.224851 L 10.989595 19.224851 L 10.989595 29.422769 Z M 11.885429 49.95402 C 14.276054 49.95402 15.468762 48.813395 15.468762 46.526937 L 15.468762 40.82902 C 15.468762 39.438394 15.265637 38.391519 14.854179 37.688394 C 14.447929 36.974853 13.729179 36.620686 12.69272 36.620686 L 10.989595 36.620686 L 10.989595 49.886312 Z M 39.833347 58.427979 C 36.13543 58.427979 33.328138 57.302979 31.406263 55.042562 C 29.489596 52.787354 28.531263 49.615478 28.531263 45.526937 L 28.531263 23.704018 C 28.531263 19.766518 29.489596 16.79256 31.406263 14.787351 C 33.328138 12.771726 36.13543 11.766518 39.833347 11.766518 C 43.531264 11.766518 46.338556 12.771726 48.255223 14.787351 C 50.182306 16.79256 51.145848 19.766518 51.145848 23.704018 L 51.145848 45.526937 C 51.145848 49.651937 50.182306 52.82902 48.255223 55.068604 C 46.338556 57.308187 43.531264 58.427979 39.833347 58.427979 Z M 39.833347 50.006103 C 40.656264 50.006103 41.208347 49.651937 41.484389 48.938395 C 41.770847 48.224853 41.916681 47.230062 41.916681 45.943603 L 41.916681 23.547768 C 41.916681 22.552977 41.781264 21.745685 41.510431 21.125893 C 41.250014 20.500893 40.708347 20.188393 39.88543 20.188393 C 38.35418 20.188393 37.593764 21.344643 37.593764 23.651935 L 37.593764 45.995687 C 37.593764 47.313395 37.755222 48.313395 38.07293 48.990478 C 38.395847 49.667562 38.97918 50.006103 39.833347 50.006103 Z M 54.817723 58.000896 L 59.729182 33.677977 L 55.833348 12.131101 L 64.791682 12.131101 L 67.197932 27.922769 L 69.270849 12.131101 L 78.281266 12.131101 L 74.333349 33.677977 L 79.244808 58.000896 L 69.973974 58.000896 L 67.083349 40.084228 L 64.151057 58.000896 Z M 54.817723 58.000896 " stroke="#181818" stroke-width="0.666666" stroke-opacity="1" stroke-miterlimit="4"/></svg>