<?xml version="1.0" encoding="UTF-8"?>
<svg id="Layer_2" data-name="Layer 2" xmlns="http://www.w3.org/2000/svg" xmlns:xlink="http://www.w3.org/1999/xlink" viewBox="0 0 195.19 92.67">
  <defs>
    <style>
      .cls-1 {
        fill: #181818;
      }

      .cls-2, .cls-3, .cls-4 {
        fill: none;
      }

      .cls-3 {
        clip-path: url(#clippath);
      }

      .cls-4 {
        stroke: #181818;
        stroke-width: .67px;
      }
    </style>
    <clipPath id="clippath">
      <path className="cls-2" d="m0,62.45h195.19v.77H0v-.77Zm194.41.77h.78v28.67h-.78v-28.67ZM0,63.22h.77v28.67h-.77v-28.67Zm0,28.67h195.19v.78H0v-.78Z"/>
    </clipPath>
  </defs>
  <g id="Layer_1-2" data-name="Layer 1">
    <g className="cls-3">
      <path className="cls-1" d="m0,62.45h195.26v30.24H0v-30.24Z"/>
    </g>
    <path className="cls-1" d="m10.46,76.79v.9h3.61c-.29,1.74-1.79,3.03-3.6,3.03-2.03,0-3.66-1.62-3.66-3.66s1.64-3.66,3.66-3.66c1.36,0,2.56.73,3.18,1.85l.83-.47c-.78-1.4-2.28-2.34-4.01-2.34-2.57,0-4.62,2.07-4.62,4.62s2.05,4.62,4.62,4.62,4.62-2.07,4.62-4.62v-.27h-4.64Z"/>
    <path className="cls-1" d="m31.25,73.49v-.93h-4.92v9h4.92v-.93h-3.96v-3.1h3.45v-.93h-3.45v-3.1h3.96Z"/>
    <path className="cls-1" d="m47.52,72.56h-5.94v.96h2.49v8.04h.96v-8.04h2.49v-.96Z"/>
    <path className="cls-1" d="m71.05,81.56h.96v-9h-.96v9Z"/>
    <path className="cls-1" d="m90.02,72.56v7.4l-5.57-7.4h-.9v9h.96v-7.4l5.55,7.4h.9v-9h-.94Z"/>
    <path className="cls-1" d="m104.72,81.68c1.53,0,2.78-.92,2.78-2.49,0-3.06-4.38-2.31-4.38-4.45,0-.9.73-1.34,1.57-1.34.69,0,1.26.29,1.62.8l.75-.63c-.49-.63-1.36-1.13-2.4-1.13-1.38,0-2.51.9-2.51,2.37,0,2.9,4.38,2.18,4.38,4.41,0,.96-.8,1.5-1.8,1.5s-1.76-.56-2.07-1.38l-.87.51c.46,1.11,1.59,1.83,2.92,1.83Z"/>
    <path className="cls-1" d="m121.55,72.56h-3.22v9h.96v-4.01h2.26c1.4,0,2.51-1.09,2.51-2.49s-1.11-2.51-2.51-2.51Zm-.09,4.08h-2.17v-3.15h2.17c.9,0,1.64.63,1.64,1.59s-.73,1.56-1.64,1.56Z"/>
    <path className="cls-1" d="m134.78,81.56h.96v-9h-.96v9Z"/>
    <path className="cls-1" d="m150.93,77.45c1.19-.17,2.08-1.16,2.08-2.37,0-1.41-1.13-2.52-2.51-2.52h-3.22v9h.96v-4.06h1.69l2.55,4.06h1.09l-2.66-4.11Zm-2.68-.87v-3.06h2.2c.9,0,1.6.63,1.6,1.53s-.69,1.53-1.6,1.53h-2.2Z"/>
    <path className="cls-1" d="m169.11,73.49v-.93h-4.92v9h4.92v-.93h-3.96v-3.1h3.45v-.93h-3.45v-3.1h3.96Z"/>
    <path className="cls-1" d="m180.41,81.56h2.46c2.47,0,4.5-2.01,4.5-4.5s-2.03-4.5-4.5-4.5h-2.46v9Zm.95-.96v-7.08h1.5c1.99,0,3.55,1.52,3.55,3.54s-1.56,3.54-3.55,3.54h-1.5Z"/>
    <path className="cls-1" d="m6.97,46.57V.75h8.85v45.81H6.97Z"/>
    <path className="cls-1" d="m20.83.75h12.65c3.28,0,5.73.91,7.35,2.73,1.64,1.81,2.48,4.49,2.52,8.04l.1,21.44c.03,4.52-.76,7.91-2.35,10.19-1.6,2.28-4.24,3.42-7.94,3.42h-12.33V.75Zm10.83,37.71c1.67,0,2.5-.82,2.5-2.46V12.38c0-1.03-.08-1.8-.25-2.31-.16-.51-.45-.86-.88-1.04-.42-.18-1.07-.27-1.96-.27h-1.02v29.71h1.6Z"/>
    <path className="cls-1" d="m48.45,46.57V.75h18.35v8.85h-9.02v8.9h8.65v8.65h-8.65v10.5h9.6v8.92h-18.94Z"/>
    <path className="cls-1" d="m70.53,46.57L74.97.75h15.52l4.38,45.81h-8.71l-.63-7.42h-5.54l-.54,7.42h-8.92Zm10.15-14.73h4.15l-2.02-23.29h-.42l-1.71,23.29Z"/>
    <path className="cls-4" d="m111.63.76h12.42c3.34,0,5.77.82,7.28,2.45,1.51,1.64,2.27,4.3,2.27,7.99v2.03c0,4.38-1.56,6.99-4.69,7.84,1.92.49,3.27,1.65,4.05,3.46s1.17,4.21,1.17,7.2c0,4.86-.73,8.56-2.19,11.06-1.46,2.51-4.09,3.77-7.89,3.77h-12.42V.76Zm10.82,17.23c.78,0,1.32-.3,1.6-.89.29-.59.43-1.42.43-2.47v-4.6c0-1.49-.66-2.24-1.98-2.24h-1.91v10.2h1.86Zm-.96,20.53c2.39,0,3.58-1.14,3.58-3.43v-5.7c0-1.39-.2-2.44-.61-3.14-.41-.71-1.12-1.07-2.16-1.07h-1.7v13.27l.9.07Zm27.95,8.47c-3.7,0-6.51-1.12-8.43-3.39-1.92-2.26-2.88-5.43-2.88-9.52V12.27c0-3.94.96-6.91,2.88-8.92,1.92-2.02,4.73-3.02,8.43-3.02s6.51,1.01,8.42,3.02c1.93,2.01,2.89,4.98,2.89,8.92v21.82c0,4.12-.96,7.3-2.89,9.54-1.92,2.24-4.72,3.36-8.42,3.36Zm0-8.42c.82,0,1.38-.35,1.65-1.07.29-.71.43-1.71.43-2.99V12.11c0-.99-.14-1.8-.41-2.42-.26-.62-.8-.94-1.62-.94-1.53,0-2.29,1.16-2.29,3.46v22.34c0,1.32.16,2.32.48,2.99.32.68.91,1.02,1.76,1.02Zm14.98,7.99l4.91-24.32-3.9-21.55h8.96l2.41,15.79,2.07-15.79h9.01l-3.95,21.55,4.91,24.32h-9.27l-2.89-17.92-2.93,17.92h-9.33Z"/>
  </g>
</svg>