<svg xmlns="http://www.w3.org/2000/svg" xmlns:xlink="http://www.w3.org/1999/xlink" width="500" zoomAndPan="magnify" viewBox="0 0 375 374.999991" height="500" preserveAspectRatio="xMidYMid meet" version="1.0"><defs><g/><clipPath id="c8104a24a9"><path d="M 110.25 204.6875 L 264.75 204.6875 L 264.75 205.261719 L 110.25 205.261719 Z M 264.164062 205.261719 L 264.75 205.261719 L 264.75 226.761719 L 264.164062 226.761719 Z M 110.25 205.261719 L 110.824219 205.261719 L 110.824219 226.761719 L 110.25 226.761719 Z M 110.25 226.761719 L 264.75 226.761719 L 264.75 227.347656 L 110.25 227.347656 Z M 110.25 226.761719 " clip-rule="nonzero"/></clipPath></defs><rect x="-37.5" width="450" fill="#ffffff" y="-37.499999" height="449.999989" fill-opacity="1"/><rect x="-37.5" width="450" fill="#000000" y="-37.499999" height="449.999989" fill-opacity="1"/><g clip-path="url(#c8104a24a9)"><path fill="#ffffff" d="M 110.25 204.6875 L 264.738281 204.6875 L 264.738281 227.367188 L 110.25 227.367188 Z M 110.25 204.6875 " fill-opacity="1" fill-rule="nonzero"/></g><g fill="#ffffff" fill-opacity="1"><g transform="translate(117.354554, 219.017856)"><g><path d="M 4.039062 -3.578125 L 4.039062 -2.902344 L 6.75 -2.902344 C 6.535156 -1.597656 5.410156 -0.628906 4.050781 -0.628906 C 2.53125 -0.628906 1.304688 -1.84375 1.304688 -3.375 C 1.304688 -4.90625 2.53125 -6.121094 4.050781 -6.121094 C 5.074219 -6.121094 5.972656 -5.570312 6.433594 -4.734375 L 7.054688 -5.085938 C 6.46875 -6.132812 5.34375 -6.839844 4.050781 -6.839844 C 2.125 -6.839844 0.585938 -5.289062 0.585938 -3.375 C 0.585938 -1.460938 2.125 0.0898438 4.050781 0.0898438 C 5.960938 0.0898438 7.515625 -1.460938 7.515625 -3.375 L 7.515625 -3.578125 Z M 4.039062 -3.578125 "/></g></g></g><g fill="#ffffff" fill-opacity="1"><g transform="translate(132.41848, 219.017856)"><g><path d="M 4.566406 -6.050781 L 4.566406 -6.75 L 0.878906 -6.75 L 0.878906 0 L 4.566406 0 L 4.566406 -0.699219 L 1.597656 -0.699219 L 1.597656 -3.027344 L 4.183594 -3.027344 L 4.183594 -3.722656 L 1.597656 -3.722656 L 1.597656 -6.050781 Z M 4.566406 -6.050781 "/></g></g></g><g fill="#ffffff" fill-opacity="1"><g transform="translate(144.636134, 219.017856)"><g><path d="M 4.554688 -6.75 L 0.101562 -6.75 L 0.101562 -6.03125 L 1.96875 -6.03125 L 1.96875 0 L 2.6875 0 L 2.6875 -6.03125 L 4.554688 -6.03125 Z M 4.554688 -6.75 "/></g></g></g><g fill="#ffffff" fill-opacity="1"><g transform="translate(156.268778, 219.017856)"><g/></g></g><g fill="#ffffff" fill-opacity="1"><g transform="translate(165.95516, 219.017856)"><g><path d="M 0.878906 0 L 1.597656 0 L 1.597656 -6.75 L 0.878906 -6.75 Z M 0.878906 0 "/></g></g></g><g fill="#ffffff" fill-opacity="1"><g transform="translate(175.39404, 219.017856)"><g><path d="M 5.671875 -6.75 L 5.671875 -1.203125 L 1.496094 -6.75 L 0.820312 -6.75 L 0.820312 0 L 1.542969 0 L 1.542969 -5.546875 L 5.703125 0 L 6.378906 0 L 6.378906 -6.75 Z M 5.671875 -6.75 "/></g></g></g><g fill="#ffffff" fill-opacity="1"><g transform="translate(189.569207, 219.017856)"><g><path d="M 2.519531 0.0898438 C 3.667969 0.0898438 4.601562 -0.597656 4.601562 -1.777344 C 4.601562 -4.074219 1.316406 -3.511719 1.316406 -5.117188 C 1.316406 -5.792969 1.867188 -6.121094 2.496094 -6.121094 C 3.015625 -6.121094 3.441406 -5.90625 3.710938 -5.523438 L 4.273438 -5.996094 C 3.902344 -6.46875 3.25 -6.839844 2.476562 -6.839844 C 1.441406 -6.839844 0.597656 -6.164062 0.597656 -5.0625 C 0.597656 -2.890625 3.882812 -3.429688 3.882812 -1.753906 C 3.882812 -1.035156 3.285156 -0.628906 2.53125 -0.628906 C 1.765625 -0.628906 1.214844 -1.046875 0.980469 -1.664062 L 0.328125 -1.28125 C 0.675781 -0.449219 1.519531 0.0898438 2.519531 0.0898438 Z M 2.519531 0.0898438 "/></g></g></g><g fill="#ffffff" fill-opacity="1"><g transform="translate(201.471862, 219.017856)"><g><path d="M 3.238281 -6.75 L 0.820312 -6.75 L 0.820312 0 L 1.542969 0 L 1.542969 -3.003906 L 3.238281 -3.003906 C 4.285156 -3.003906 5.117188 -3.824219 5.117188 -4.871094 C 5.117188 -5.90625 4.285156 -6.75 3.238281 -6.75 Z M 3.171875 -3.691406 L 1.542969 -3.691406 L 1.542969 -6.050781 L 3.171875 -6.050781 C 3.847656 -6.050781 4.398438 -5.578125 4.398438 -4.859375 C 4.398438 -4.117188 3.847656 -3.691406 3.171875 -3.691406 Z M 3.171875 -3.691406 "/></g></g></g><g fill="#ffffff" fill-opacity="1"><g transform="translate(213.757014, 219.017856)"><g><path d="M 0.878906 0 L 1.597656 0 L 1.597656 -6.75 L 0.878906 -6.75 Z M 0.878906 0 "/></g></g></g><g fill="#ffffff" fill-opacity="1"><g transform="translate(223.195894, 219.017856)"><g><path d="M 3.554688 -3.082031 C 4.445312 -3.207031 5.117188 -3.949219 5.117188 -4.859375 C 5.117188 -5.917969 4.273438 -6.75 3.238281 -6.75 L 0.820312 -6.75 L 0.820312 0 L 1.542969 0 L 1.542969 -3.046875 L 2.8125 -3.046875 L 4.726562 0 L 5.546875 0 Z M 1.542969 -3.734375 L 1.542969 -6.03125 L 3.195312 -6.03125 C 3.871094 -6.03125 4.398438 -5.558594 4.398438 -4.882812 C 4.398438 -4.195312 3.882812 -3.734375 3.195312 -3.734375 Z M 1.542969 -3.734375 "/></g></g></g><g fill="#ffffff" fill-opacity="1"><g transform="translate(235.818555, 219.017856)"><g><path d="M 4.566406 -6.050781 L 4.566406 -6.75 L 0.878906 -6.75 L 0.878906 0 L 4.566406 0 L 4.566406 -0.699219 L 1.597656 -0.699219 L 1.597656 -3.027344 L 4.183594 -3.027344 L 4.183594 -3.722656 L 1.597656 -3.722656 L 1.597656 -6.050781 Z M 4.566406 -6.050781 "/></g></g></g><g fill="#ffffff" fill-opacity="1"><g transform="translate(248.036209, 219.017856)"><g><path d="M 0.820312 0 L 2.667969 0 C 4.523438 0 6.042969 -1.507812 6.042969 -3.375 C 6.042969 -5.242188 4.523438 -6.75 2.667969 -6.75 L 0.820312 -6.75 Z M 1.53125 -0.71875 L 1.53125 -6.03125 L 2.65625 -6.03125 C 4.152344 -6.03125 5.320312 -4.894531 5.320312 -3.375 C 5.320312 -1.855469 4.152344 -0.71875 2.65625 -0.71875 Z M 1.53125 -0.71875 "/></g></g></g><g fill="#ffffff" fill-opacity="1"><g transform="translate(116.078119, 192.77278)"><g><path d="M 1.203125 0 L 1.203125 -34.359375 L 7.84375 -34.359375 L 7.84375 0 Z M 1.203125 0 "/></g></g></g><g fill="#ffffff" fill-opacity="1"><g transform="translate(126.157219, 192.77278)"><g><path d="M 1.515625 -34.359375 L 11 -34.359375 C 13.457031 -34.359375 15.296875 -33.675781 16.515625 -32.3125 C 17.742188 -30.957031 18.375 -28.945312 18.40625 -26.28125 L 18.484375 -10.203125 C 18.503906 -6.816406 17.914062 -4.269531 16.71875 -2.5625 C 15.519531 -0.851562 13.535156 0 10.765625 0 L 1.515625 0 Z M 9.640625 -6.078125 C 10.890625 -6.078125 11.515625 -6.691406 11.515625 -7.921875 L 11.515625 -25.640625 C 11.515625 -26.410156 11.453125 -26.988281 11.328125 -27.375 C 11.210938 -27.757812 10.992188 -28.019531 10.671875 -28.15625 C 10.359375 -28.289062 9.867188 -28.359375 9.203125 -28.359375 L 8.4375 -28.359375 L 8.4375 -6.078125 Z M 9.640625 -6.078125 "/></g></g></g><g fill="#ffffff" fill-opacity="1"><g transform="translate(146.875261, 192.77278)"><g><path d="M 1.515625 0 L 1.515625 -34.359375 L 15.28125 -34.359375 L 15.28125 -27.71875 L 8.515625 -27.71875 L 8.515625 -21.046875 L 15 -21.046875 L 15 -14.5625 L 8.515625 -14.5625 L 8.515625 -6.6875 L 15.71875 -6.6875 L 15.71875 0 Z M 1.515625 0 "/></g></g></g><g fill="#ffffff" fill-opacity="1"><g transform="translate(164.353622, 192.77278)"><g><path d="M 0.59375 0 L 3.921875 -34.359375 L 15.5625 -34.359375 L 18.84375 0 L 12.3125 0 L 11.84375 -5.5625 L 7.6875 -5.5625 L 7.28125 0 Z M 8.203125 -11.046875 L 11.3125 -11.046875 L 9.796875 -28.515625 L 9.484375 -28.515625 Z M 8.203125 -11.046875 "/></g></g></g><path stroke-linecap="butt" transform="matrix(0.75, 0, 0, 0.75, 197.999991, 149.272783)" fill="none" stroke-linejoin="miter" d="M 2.031261 12.193582 L 14.453137 12.193582 C 17.791679 12.193582 20.218763 13.01129 21.729179 14.641499 C 23.239596 16.276915 23.994805 18.938374 23.994805 22.636291 L 23.994805 24.667541 C 23.994805 29.042541 22.432304 31.657125 19.307304 32.506083 C 21.229179 33.000875 22.578138 34.157125 23.359388 35.969625 C 24.140638 37.782125 24.531263 40.183167 24.531263 43.172751 C 24.531263 48.037334 23.802096 51.730043 22.343763 54.235251 C 20.885429 56.745668 18.255221 58.000876 14.453137 58.000876 L 2.031261 58.000876 Z M 12.848971 29.42275 C 13.630221 29.42275 14.166679 29.125875 14.453137 28.537333 C 14.739596 27.943583 14.880221 27.120666 14.880221 26.063374 L 14.880221 21.464416 C 14.880221 19.974832 14.223971 19.224832 12.901054 19.224832 L 10.989595 19.224832 L 10.989595 29.42275 Z M 11.885429 49.954001 C 14.276054 49.954001 15.468762 48.813376 15.468762 46.526917 L 15.468762 40.829 C 15.468762 39.438375 15.265637 38.3915 14.854179 37.688375 C 14.447929 36.974833 13.729179 36.620667 12.692721 36.620667 L 10.989595 36.620667 L 10.989595 49.886293 Z M 39.833347 58.42796 C 36.13543 58.42796 33.328139 57.30296 31.406263 55.042543 C 29.489597 52.787334 28.531263 49.615459 28.531263 45.526917 L 28.531263 23.703999 C 28.531263 19.766499 29.489597 16.79254 31.406263 14.787332 C 33.328139 12.771707 36.13543 11.766498 39.833347 11.766498 C 43.531264 11.766498 46.338556 12.771707 48.255223 14.787332 C 50.182306 16.79254 51.145848 19.766499 51.145848 23.703999 L 51.145848 45.526917 C 51.145848 49.651918 50.182306 52.829001 48.255223 55.068585 C 46.338556 57.308168 43.531264 58.42796 39.833347 58.42796 Z M 39.833347 50.006084 C 40.656264 50.006084 41.208347 49.651918 41.484389 48.938376 C 41.770847 48.224834 41.916681 47.230042 41.916681 45.943584 L 41.916681 23.547749 C 41.916681 22.552957 41.781264 21.745666 41.510431 21.125874 C 41.250014 20.500874 40.708347 20.188374 39.885431 20.188374 C 38.354181 20.188374 37.593764 21.344624 37.593764 23.651916 L 37.593764 45.995667 C 37.593764 47.313376 37.755222 48.313376 38.072931 48.990459 C 38.395847 49.667543 38.979181 50.006084 39.833347 50.006084 Z M 54.817723 58.000876 L 59.729182 33.677958 L 55.833348 12.131082 L 64.791682 12.131082 L 67.197932 27.92275 L 69.270849 12.131082 L 78.281266 12.131082 L 74.33335 33.677958 L 79.244808 58.000876 L 69.973974 58.000876 L 67.083349 40.084209 L 64.151057 58.000876 Z M 54.817723 58.000876 " stroke="#ffffff" stroke-width="0.666666" stroke-opacity="1" stroke-miterlimit="4"/></svg>