<?xml version="1.0" encoding="UTF-8"?>
<svg id="Layer_2" data-name="Layer 2" xmlns="http://www.w3.org/2000/svg" viewBox="0 0 1965.17 1856.11">
  <defs>
    <style>
      .cls-1 {
        fill: #dd9d7e;
      }

      .cls-2 {
        fill: #7fc78d;
      }

      .cls-3 {
        fill: #fff;
      }

      .cls-4 {
        fill: #4f1531;
      }

      .cls-5 {
        fill: #f8a07d;
      }

      .cls-6 {
        fill: #007ea3;
      }

      .cls-7 {
        fill: #0061a2;
      }

      .cls-8 {
        fill: #00468b;
      }

      .cls-9 {
        fill: #5860ab;
      }

      .cls-10 {
        fill: #171f29;
      }

      .cls-11 {
        fill: #6652a2;
      }

      .cls-12 {
        fill: #152035;
      }

      .cls-13 {
        fill: #a4def6;
      }

      .cls-14 {
        fill: #3f1901;
      }

      .cls-15 {
        fill: #17181c;
      }

      .cls-16 {
        fill: #f8b78f;
      }

      .cls-17 {
        fill: #053b6b;
      }

      .cls-18 {
        fill: #98c4e9;
      }

      .cls-19 {
        fill: #f7a483;
      }

      .cls-20 {
        fill: #9eabd3;
      }

      .cls-21 {
        fill: #0093c6;
      }

      .cls-22 {
        fill: #3dafe4;
      }

      .cls-23 {
        fill: #1a2652;
      }

      .cls-24 {
        fill: #ffd47c;
      }

      .cls-25 {
        fill: #f38db6;
      }

      .cls-26 {
        fill: #040308;
      }

      .cls-27 {
        fill: #cc4e7e;
      }

      .cls-28 {
        fill: #3c2415;
      }

      .cls-29 {
        fill: #0058a9;
      }

      .cls-30 {
        fill: #80bbe6;
      }

      .cls-31 {
        isolation: isolate;
      }

      .cls-31, .cls-32, .cls-33 {
        fill: none;
      }

      .cls-34 {
        fill: #2b3b6f;
      }

      .cls-35 {
        fill: #340e08;
      }

      .cls-36 {
        fill: #004e89;
      }

      .cls-37 {
        fill: #196eab;
      }

      .cls-38 {
        fill: #f4b78e;
      }

      .cls-39 {
        fill: #424888;
      }

      .cls-40 {
        fill: #7c294b;
      }

      .cls-41 {
        fill: #30528b;
      }

      .cls-42 {
        fill: #e1876f;
      }

      .cls-32 {
        stroke-width: 12.47px;
      }

      .cls-32, .cls-33 {
        stroke: #699fd5;
        stroke-miterlimit: 10;
      }

      .cls-43 {
        fill: #a1426f;
      }

      .cls-44 {
        fill: #1f2732;
      }

      .cls-45 {
        fill: #e6e7e8;
      }

      .cls-46 {
        fill: #065099;
      }

      .cls-47 {
        fill: #104473;
      }

      .cls-48 {
        fill: #6174b8;
      }

      .cls-49 {
        fill: #872952;
      }

      .cls-50 {
        fill: #561136;
      }

      .cls-51 {
        fill: #394472;
      }

      .cls-52 {
        fill: #271000;
      }

      .cls-53 {
        fill: #e59375;
      }

      .cls-54 {
        fill: #e98b6f;
      }

      .cls-33 {
        stroke-width: 13.46px;
      }
    </style>
  </defs>
  <g id="Capa_1" data-name="Capa 1">
    <g>
      <g>
        <path class="cls-20" d="m1162.57,1125.18l-294.75-124.03-229.94,155.16,122.09,51.37c-2.69,2.28-7.29,4.93-8.23,5.37-4.28,1.95-9.75,3.4-15.06,4.38-10.27,1.89-22.88,1.58-30.19,6.52-11.44,7.72-2.43,21.73,20.08,31.77.65.29,1.32.58,1.99.87,23.96,10.08,52.93,11.82,64.7,3.87,9.56-6.45,2.21-16.69,7.91-24.19.47-.62,5.38-4.79,9.53-7.24l121.93,51.31,95.14-64.19c-.39-.18-.79-.37-1.22-.56-4.7-2.1-11.45-4.35-12.52-4.59-14.19-3.12-33.38.66-45.63-4.5-15.02-6.69-11.96-21.86,6.53-34.33,18.69-12.61,46.07-17.69,61.16-11.35,9.36,4.17,9,10.74,12.63,16.13,1.9,2.83,4.7,5.76,8.43,8.06.45.27,2.15,1.12,4.3,2.09,1.8.8,3.92,1.68,5.9,2.35l95.22-64.26Z"/>
        <path class="cls-20" d="m849.72,1560.65c-7.43-5.03-20.26-4.7-30.69-6.63-5.41-1-10.96-2.47-15.32-4.46-.94-.43-5.62-3.13-8.36-5.44l124.09-52.22-96.68-65.24c.39-.2.81-.39,1.24-.58,4.78-2.13,11.63-4.42,12.72-4.66,14.41-3.17,33.91.68,46.88-4.78,14.76-6.58,11.65-22-7.15-34.68-19-12.82-46.83-17.98-62.62-11.33-9.05,4.04-8.69,10.71-12.37,16.18-1.94,2.89-4.79,5.86-8.58,8.2-.45.28-2.2,1.15-4.4,2.14-1.82.82-3.96,1.69-5.95,2.37l-96.8-65.32-299.59,126.06,233.71,157.7,123.95-52.15c4.21,2.49,9.2,6.72,9.68,7.36,5.79,7.62-1.68,18.03,8.04,24.59,11.97,8.07,41.41,6.3,65.76-3.94.69-.29,1.36-.58,2.02-.88,22.88-10.2,32.04-24.45,20.42-32.29Z"/>
        <path class="cls-20" d="m1081.45,1266.6l123.93-52.15c4.22,2.49,9.21,6.72,9.7,7.35,5.79,7.63-1.68,18.04,8.04,24.6,11.97,8.07,41.4,6.3,65.76-3.94.68-.29,1.35-.57,2.01-.87,22.89-10.21,32.06-24.46,20.43-32.31-7.44-5.01-20.25-4.7-30.69-6.62-5.4-.99-10.95-2.47-15.31-4.46-.95-.44-5.62-3.14-8.36-5.45l124.09-52.21,233.71,157.7-299.59,126.07-96.69-65.24c.38-.19.78-.37,1.2-.55,4.78-2.13,11.67-4.44,12.76-4.68,14.42-3.17,33.93.68,46.38-4.56,15.27-6.8,12.15-22.22-6.63-34.9-19-12.82-46.83-17.98-62.16-11.53-9.52,4.24-9.15,10.91-12.83,16.38-1.94,2.89-4.79,5.86-8.58,8.2-.46.27-2.2,1.15-4.4,2.13-1.82.82-3.96,1.7-5.95,2.37l-96.8-65.32Z"/>
        <path class="cls-20" d="m1480.68,1609.09l-121.95-51.31c-4.15,2.44-9.05,6.62-9.52,7.23-5.7,7.5,1.65,17.75-7.91,24.2-11.78,7.94-40.74,6.21-64.7-3.87-.68-.29-1.34-.57-1.99-.86-22.51-10.04-31.52-24.06-20.09-31.77,7.31-4.94,19.93-4.62,30.19-6.52,5.32-.98,10.79-2.44,15.06-4.39.94-.43,5.54-3.09,8.22-5.36l-122.08-51.38-95.23,64.27c-1.97-.66-4.09-1.54-5.89-2.35-2.15-.95-3.85-1.81-4.29-2.09-3.74-2.3-6.54-5.23-8.45-8.06-3.63-5.39-3.27-11.95-12.17-15.92-15.55-6.55-42.92-1.47-61.62,11.14-18.48,12.47-21.54,27.64-7.02,34.12,12.76,5.38,31.94,1.58,46.12,4.71,1.08.24,7.81,2.49,12.52,4.59.43.19.84.38,1.23.57l-95.13,64.18,294.76,124.03,229.94-155.16Z"/>
      </g>
      <g>
        <g>
          <path class="cls-20" d="m787.28,1101.77c0,41.37-75.38,74.91-168.36,74.91s-168.36-33.54-168.36-74.91,75.38-74.91,168.36-74.91,168.36,33.53,168.36,74.91Z"/>
          <g>
            <g>
              <polygon class="cls-50" points="664.24 1096.75 667 1096.24 669.77 1073.05 662.51 1064.47 664.24 1096.75"/>
              <g>
                <polygon class="cls-12" points="660.92 1094.87 664.24 1096.75 663.72 1058.8 657.86 1057.47 660.92 1094.87"/>
                <g>
                  <path class="cls-53" d="m686.43,1047.11l6.16,20.35s8.38,19.6,15.3,27.33c0,0,12.48,17.11-10.87,15.97,0,0-24.9-1.33-24.52-17.3.32-13.74-12.3-30.79-12.3-30.79-4.64-8.04.05-14.56,1.63-16.4l4.32-4.93,20.94-3.66-.65,9.44Z"/>
                  <path class="cls-12" d="m709.24,1101.09c-10.29,1.92-20.72-1.9-27.12-8.21-6.48-6.38-13.86-29.71-11.41-21.96,1.01,3.2-6.6-25.16-4.57-29.6l-4.32,4.93c-1.57,1.84-6.7,8.79-2.05,16.83,0,0,13.05,16.62,12.73,30.36-.38,15.97,24.52,17.3,24.52,17.3,14.01.68,15.12-5.21,13.76-10.02-.49.15-1,.27-1.54.37Z"/>
                  <path class="cls-12" d="m720.97,1107.92s3.52,6.64-7.64,6.64c0,0-41.78-2.65-41.77-20.61l-.02-14.46s3.29,20.64,29.09,20.69c0,0,11.46,0,5.54-7.3l14.79,15.04Z"/>
                </g>
              </g>
            </g>
            <g>
              <path class="cls-23" d="m653.72,140.55c0,15.36-12.45,27.81-27.8,27.81s-27.81-12.45-27.81-27.81,12.45-27.81,27.81-27.81,27.8,12.45,27.8,27.81Z"/>
              <path class="cls-19" d="m645.85,268.71h54.77c-2.49-7.97-7.65-28.61.34-42.66l-55.33-36.33s9.84,60.97.23,79Z"/>
              <path class="cls-42" d="m651.98,234.3c3.28,8.39,8.58,12.47,17.24,15.21,9.59,3.03,18.8,3.63,27.81,2.06-.87-8.4-.41-17.92,3.91-25.52l-55.33-36.33s3,18.6,4.06,38.28c.75,2.1,1.48,4.21,2.3,6.3Z"/>
              <path class="cls-19" d="m711.48,238.74l2.91-8.24,7.09-24.23c.98-3.85,1.44-9.1.12-12.86-1.59-4.52-2.81-11.88-1.13-20.12,4.51-22.05-5.28-33.56-5.28-33.56-12.87-20.27-43.25-20.18-43.25-20.18-37.55,1.95-40.62,38.31-40.62,38.31-6.03,24.2,13.26,44.28,13.29,44.32,2.44,2.54,2.7,6.66,3.88,9.8,1.26,3.36,3.16,6.49,5.51,9.19,5.28,6.05,12.17,11.85,19.25,15.46,6.71,3.42,19.72,6.93,28.95,6.83,3.83-.04,7.59,0,9.26-4.72Z"/>
              <g>
                <polygon class="cls-50" points="536.18 1101.11 538.97 1101.51 549.02 1080.44 544.91 1069.97 536.18 1101.11"/>
                <g>
                  <polygon class="cls-12" points="533.64 1098.26 536.18 1101.11 547.87 1064.99 542.74 1061.86 533.64 1098.26"/>
                  <g>
                    <path class="cls-19" d="m573.13,1061.2c-.55,16.96-1.81,35.99,5.03,52.04,0,0,6.33,20.21-15.42,11.64,0,0-23.16-9.25-17.68-24.25,4.72-12.91-1.77-33.11-1.77-33.11-1.82-9.11,4.72-13.78,6.8-15.01l5.68-3.29h21.77l-4.41,11.98Z"/>
                    <path class="cls-12" d="m577.42,1119.66c-10.37-1.48-19.02-8.45-23.05-16.47-4.09-8.12-3.6-32.6-3.76-24.46-.07,3.36,1.82-25.96,5.17-29.5l-5.68,3.29c-2.08,1.24-9.16,6.17-7.35,15.29,0,0,7.03,19.93,2.31,32.84-5.48,15.01,17.68,24.25,17.68,24.25,13.05,5.14,15.99-.08,16.25-5.08-.51-.02-1.04-.07-1.57-.15Z"/>
                    <path class="cls-12" d="m586.34,1129.89s1.2,7.42-9.37,3.84c0,0-38.72-15.92-32.95-32.92l4.62-13.7s-3.51,20.6,20.91,28.93c0,0,10.85,3.68,7.59-5.14l9.19,18.99Z"/>
                  </g>
                </g>
              </g>
              <path class="cls-19" d="m597.18,807.82c-27.77,51.28-32.69,72.15-37.62,111.14-2.88,22.68-1.92,118.21-4.9,132.46-1.24,5.91,21.21,2.67,21.21,2.67,4.11-9.99,69.49-229.49,69.49-229.49,0,0,7.31-22.74,1.24-26.69-30.48-19.86-37.31-12.45-49.42,9.9Z"/>
              <path class="cls-44" d="m576.54,1058.68c4.11-9.99,68.81-234.07,68.81-234.07,0,0,7.31-22.74,1.24-26.69-30.48-19.86-37.31-12.45-49.42,9.9-27.77,51.28-32.69,72.15-37.62,111.14-2.88,22.68-7.56,114.91-10.54,129.17,0,0,16.61,19.79,27.52,10.54Z"/>
              <path class="cls-44" d="m721.84,436.98s21.34,90.33,18.48,100.2c-8.25,28.42-84.82,68.31-154.64,10.14,0,0,15.96-66.81,49.11-123.32,0,0,12.18,12.58,87.06,12.98Z"/>
              <path class="cls-11" d="m710.96,253.43s27.93,54,40.4,83.62c-5.22,34.73-24.09,86.24-31.68,97.11-16.62,23.81-92.59,2.55-92.59,2.55l-21.9-73.11c63.92-22.95,30.26-90.31,30.26-90.31l10.02-6.33s10.22,33.11,51.83,31.92c0,0,13.67-8.9,3.61-46.66,0,0,6,.19,10.04,1.2Z"/>
              <path class="cls-53" d="m641.43,561.5s7.35,145.72,34.31,224.1c4.02,11.69,50.09-3.84,50.09-3.84,0,0,23.25-125.38,21.85-177.33-.79-29.36-11.29-92.67-11.29-92.67,0,0-86.4-11.3-94.96,49.74Z"/>
              <path class="cls-53" d="m677.06,785.07l48.76-3.32s-29.96,248.76-32.68,259.22c0,0-20.96,7.58-20.54,1.56,1.02-14.53-16.47-126.16-17.01-149.02-.86-36.72.58-59.91,21.46-108.44Z"/>
              <path class="cls-10" d="m641.43,561.5s7.35,145.72,34.31,224.1c4.02,11.69,50.09-3.84,50.09-3.84,0,0,23.25-125.38,21.85-177.33-.79-29.36-11.29-92.67-11.29-92.67,0,0-86.4-11.3-94.96,49.74Z"/>
              <path class="cls-10" d="m699.19,1042.53c4.95-9.6,26.64-260.78,26.64-260.78l-48.76,3.32c-20.88,48.53-22.32,71.72-21.46,108.44.53,22.86,11.6,134.49,10.58,149.02,0,0,26.5,12.61,33,0Z"/>
              <g>
                <path class="cls-53" d="m799.17,430.33l-36.97-134.02c-13.31-35.85-33.17-36.73-33.17-36.73-38.07,5.76-13.7,72.56-13.7,72.56l46.98,111.32"/>
                <g>
                  <path class="cls-53" d="m906.3,530.46c-15.98-11.86-17.09-15.08-19.5-19.9-10.42-20.69,16.16-16.16,22.65-13.64,3.72,1.45,2.61,10.64,12.91,23.59,0,0,17.17,13.69,21.91,13.59,0,0,4.72,1.4,4.21,4.87,0,0-14.34,5.85-42.16-8.52Z"/>
                  <path class="cls-53" d="m796.31,422.54l108.26,81.9c2.99,14.93-3.85,16-3.85,16l-87.32-39.73c-37.39-16.18-50.4-34.8-50.4-34.8,0,0-15.28-14.31,9.04-28.67,0,0,11.05-6.36,24.27,5.3Z"/>
                  <path class="cls-53" d="m906.37,495.99s-4.74,9.16,7.64,8.57l13.09-7.22s3.94-1.41,3.17-5.1c0,0-1.11-2.2-5.16-.78l-18.73,4.53Z"/>
                </g>
              </g>
              <path class="cls-19" d="m581.8,573.68s.56,145.78,19.79,226.4c2.86,12.02,46.78,8.34,46.78,8.34,0,0,28.66-137.87,32.31-189.7,2.07-29.3,7.93-80.57,7.93-80.57,0,0-102.82-10.19-106.81,35.54Z"/>
              <path class="cls-19" d="m603.07,290.81c-22.41,16.38-10.95,41.02-10.95,41.02l42.32,102.79s68.63,23.34,85.25-.46c7.59-10.87,14.61-39.68,23.82-81.24,6.26-28.24,6.69-77.58-9.21-92.19-9.17-8.43-38.84-8.26-39.06-9.26l-48.08,15.49-44.09,23.85Z"/>
              <path class="cls-19" d="m693.68,426.23c4.06-.74,26.01,7.93,26.01,7.93,0,0,15.8,67.36,16.7,77.59.89,10.23-69.54,63.25-148.22,33.07,0,0,39.73-93.71,45.54-113.31,6.67-22.5,59.97-5.29,59.97-5.29Z"/>
              <path class="cls-11" d="m731.89,295.09s23.22,27.35,25.17,47.66c1.08,11.31-13.2,30.25-20.34,37.23-5.06,4.95-35.06-66.02-4.83-84.89Z"/>
              <path class="cls-44" d="m607.45,522.5s-27.74,6.16-25.24,57.02c2.44,49.66,92.86,59.99,104.47,9.95,12.49-53.86-29.86-85.43-79.23-66.97Z"/>
              <path class="cls-34" d="m648.83,216.2c-.19-17.15.24-16.1.24-16.1.4-5.01,10.23,5.79,10.03-.74-.93-29.88,9.92-44.1,14.17-46.41,11.53-6.24,23.69-8.03,33.33-6.32,15.11,2.69,14.53,22.8,14.53,22.8,12.87-73.64-69.25-50.11-69.25-50.11-40,10.51-35.88,48.2-35.88,48.2-4.9,40.47,33.45,63.86,33.45,63.86l-.62-15.19Z"/>
              <g>
                <path class="cls-5" d="m651.46,210.37c-1.34,1.04-3.06,1.62-5.21,1.58-5.82-.08-10.65-5.53-10.78-12.14-.13-6.61,4.46-11.91,10.27-11.83,2.76.04,5.29,1.29,7.21,3.29,2.79,2.92,2.88,8.31,2.22,12.03-.52,2.96-1.69,5.52-3.7,7.07Z"/>
                <g>
                  <path class="cls-54" d="m648.08,194.14c-.34-3.48-7.37-.16-6.31,1.8.62,1.13,1.85,1.95,2.82,2.74,1.32,1.08,1.98,2.07,2.16,3.8.02.2.06.8-.14.94-.91.63-3.89-2.76-4.54-3.48-1.29-1.41-1.46-3.81-.84-5.55.65-1.85,1.87-2.72,3.85-2.6,1.58.09,3.19.2,3.1,2.16,0,.04-.07.37-.09.19h0Z"/>
                  <path class="cls-54" d="m645.83,197.75c.73-.73,1.43-.12,2.18.41.69.51,1.08,1.23,1.26,2.05.4,1.81.16,4.23-.87,5.8-.84,1.27-2.24,2.05-3.77,2-2.12-.06-2.75-1.93-2.83-3.72-.02-.47-.06-1.61.4-1.91.51-.32.87.46,1.21.8.47.44,1.17.62,1.79.68,1.2.1,2.39-.51,3.15-1.41.13-.16.26-.35.32-.54,0,1.17-.06,1.43-.19.79-.09-.3-.23-.57-.4-.83-.49-.81-1.32-1.36-1.87-2.14-.26-.36-.76-1.62-.39-1.99h0Z"/>
                </g>
              </g>
              <g>
                <path class="cls-28" d="m684.77,184.78c.2,2.08-.78,3.88-2.19,4.02-1.41.13-2.72-1.44-2.92-3.52-.2-2.08.78-3.88,2.19-4.01,1.41-.14,2.72,1.44,2.92,3.51Z"/>
                <path class="cls-28" d="m713.66,180.89c.08,2.09-1.01,3.82-2.43,3.87-1.42.05-2.63-1.6-2.7-3.68-.08-2.09,1.01-3.83,2.43-3.87,1.42-.06,2.63,1.59,2.7,3.68Z"/>
                <path class="cls-34" d="m672.32,181.98c5.43-5.71,18.2-5.25,18.2-5.25,0,0,.85-.05.62-2.65,0,0-.06-2.3-1.91-2.08,0,0-16.25-1.08-16.92,9.97Z"/>
                <path class="cls-34" d="m720.99,171.06c-5.67-4.59-16.1-1.01-16.1-1.01-1.84.27-1.29,2.5-1.29,2.5.46,2.57,1.3,2.39,1.3,2.39,0,0,8.62-2.66,15.37-1.09.25-.93.5-1.85.72-2.79Z"/>
                <path class="cls-3" d="m710.01,211.17l-20.57,3.81c-1.08.2-1.51.84-.93,1.42,0,0,5.92,5.92,12.59,4.67,6.67-1.25,10-8.9,10-8.9.29-.67-.21-1.05-1.09-.99Z"/>
                <path class="cls-54" d="m695.23,204.69c10.78-.78,11.37-3.61,11.37-3.61l-5.65-11.37s1.3,11.37-5.72,14.97Z"/>
              </g>
              <path class="cls-44" d="m581.8,573.68s.56,145.78,19.79,226.4c2.86,12.02,46.78,8.34,46.78,8.34,0,0,28.66-137.87,32.31-189.7,2.07-29.3,7.93-80.57,7.93-80.57,0,0-102.82-10.19-106.81,35.54Z"/>
              <path class="cls-44" d="m721.84,436.98s21.34,90.33,18.48,100.2c-8.25,28.42-84.82,68.31-154.64,10.14,0,0,15.96-66.81,49.11-123.32,0,0,12.18,12.58,87.06,12.98Z"/>
              <path class="cls-11" d="m627.09,436.71s78.13,24.07,94.75.27c7.59-10.87,24.3-65.2,29.52-99.93-12.47-29.62-40.4-83.62-40.4-83.62-4.04-1.02-10.04-1.2-10.04-1.2,10.06,37.76-3.61,46.66-3.61,46.66-41.6,1.18-51.83-31.92-51.83-31.92l-10.02,6.33s30.99,64.37-28.83,93.81c0,0-1.44,69.06,20.46,69.61Z"/>
              <path class="cls-3" d="m651.73,211.58c0,1.96-1.59,3.56-3.56,3.56s-3.56-1.6-3.56-3.56,1.59-3.56,3.56-3.56,3.56,1.6,3.56,3.56Z"/>
              <g>
                <path class="cls-19" d="m636.62,300.2c12.15,12.92,11.53,33.25-1.39,45.4-12.92,12.16-53.53,35.34-53.91,17.6-.75-34.86.62-53.8,13.54-65.95,12.93-12.16,29.61-9.97,41.77,2.96Z"/>
                <path class="cls-19" d="m638.07,329.68l-28.07-16.18-28.21,17.65s-16.51,105.19-10.43,129.27c6.48,25.65,18.26,6.76,23.84-.26,0,0,46.04-110.04,42.87-130.47Z"/>
                <path class="cls-19" d="m575.63,470.68s50.47,36.05,95.27,55.65c0,0,14.8-6.22,7.4-13.06-12.57-11.62-67.51-64.23-80.2-75.87-22.47-7.68-22.47,33.28-22.47,33.28Z"/>
                <g>
                  <path class="cls-19" d="m696.45,546.46c-18.26-7.89-20.08-10.78-23.54-14.92-14.87-17.76,12.04-19.43,18.93-18.46,3.95.56,4.97,9.77,17.96,20.02,0,0,19.84,9.39,24.44,8.22,0,0,4.91.28,5.2,3.78,0,0-12.62,8.97-42.99,1.35Z"/>
                  <path class="cls-19" d="m690.99,512.86s-7.82,6.72,3.87,10.82l14.84-1.79s4.19.16,4.85-3.54c0,0-.21-2.46-4.49-2.65l-19.06-2.83Z"/>
                </g>
              </g>
            </g>
          </g>
        </g>
        <g class="cls-31">
          <path class="cls-21" d="m1007.25,643.73c-.22-.05-.44-.1-.66-.15-.34-.07-.67-.15-1.01-.22-.24-.05-.49-.09-.74-.13-.24-.04-.47-.09-.71-.12l-.5,57.45-95.14,64.19.6-68.56,78.81-53.17c-1.16.13-2.32.3-3.5.49-.25.04-.51.08-.76.13-.45.08-.89.16-1.35.24-.3.06-.6.12-.9.18-.44.09-.87.18-1.31.28-.27.05-.55.12-.82.18-.69.16-1.38.32-2.07.49-.18.05-.37.09-.55.14-.85.22-1.7.46-2.55.71-.15.04-.3.09-.45.13-1.18.35-2.34.72-3.51,1.11-.04.02-.08.03-.12.05-1.17.4-2.34.83-3.5,1.28-.08.04-.17.07-.25.1-1.31.52-2.61,1.07-3.89,1.64-.06.02-.12.05-.18.08-1.3.59-2.58,1.21-3.83,1.86-.04.02-.09.04-.12.06-1.27.66-2.52,1.35-3.75,2.07-.02.02-.05.03-.07.04-1.24.73-2.46,1.5-3.64,2.3-10.5,7.08-16.02,15.04-16.08,21.81.2-22.85.4-45.7.6-68.55.06-6.78,5.58-14.73,16.08-21.82,1.18-.8,2.39-1.56,3.63-2.29.02-.01.05-.03.07-.04,1.22-.72,2.47-1.41,3.74-2.08.04-.02.09-.04.13-.06,1.26-.65,2.53-1.27,3.82-1.86.06-.03.13-.06.2-.08,1.28-.58,2.57-1.12,3.87-1.64.03-.01.05-.02.08-.03.07-.03.14-.05.22-.08,1.13-.45,2.28-.87,3.43-1.26.05-.03.11-.04.16-.06,1.15-.39,2.31-.75,3.47-1.1.1-.03.2-.07.3-.1.07-.02.13-.04.2-.05.84-.24,1.69-.47,2.53-.69.19-.05.38-.1.57-.15.68-.17,1.36-.34,2.04-.49.14-.03.27-.07.41-.1.15-.04.3-.07.46-.1.42-.09.83-.18,1.25-.26.32-.07.64-.13.96-.19.43-.08.85-.16,1.27-.23.22-.04.45-.08.67-.12.06,0,.11-.01.17-.02,1.17-.2,2.33-.35,3.48-.49.1-.01.2-.03.3-.04.07,0,.15-.01.22-.02,1.01-.12,2.01-.21,3-.27.08,0,.17-.02.25-.03.11,0,.22,0,.34-.01.93-.06,1.86-.1,2.78-.12,0,0,.02,0,.03,0h.05c.86-.01,1.71,0,2.56.01h.35c.1,0,.19.01.29.02.85.03,1.69.07,2.51.13.02,0,.05,0,.07,0,.06,0,.12.02.19.02.86.07,1.69.17,2.51.28.09.01.19.02.28.04.06,0,.12.02.19.03.33.05.65.11.97.16.26.04.53.09.79.14.32.06.63.13.94.2.22.05.44.08.65.14.03,0,.05.01.08.02.74.18,1.45.38,2.15.6.16.05.32.1.48.16.7.23,1.39.48,2.05.75.53.24,1.02.48,1.49.73.14.07.27.15.41.23.16.1.34.19.5.28.14.09.26.18.4.26.17.1.33.21.5.32.26.18.51.35.74.54.14.11.28.21.42.32.04.04.1.07.14.11.28.23.55.48.8.72.04.03.07.07.1.1.2.2.39.39.57.59v.02h0v-.02c.06.06.11.13.16.19.09.1.17.2.26.3.18.21.35.43.51.65.08.1.15.2.23.3.04.05.08.1.12.15.08.12.14.23.22.34.14.21.28.43.41.65.09.16.19.32.28.47.12.22.24.44.36.66.04.07.07.13.11.19.04.08.07.15.11.23.19.38.38.77.55,1.16.03.06.06.13.09.19.23.52.46,1.05.68,1.58.15.34.29.68.45,1.02.07.15.14.31.21.46.2.45.41.9.64,1.35.11.23.23.45.36.66.07.12.13.24.2.37.2.34.4.68.63,1.01.14.21.3.43.45.64.21.3.44.6.67.9.1.13.2.26.31.39.32.4.65.79,1.01,1.18.02.03.04.05.06.07.37.4.77.8,1.17,1.19.12.12.24.22.37.33.3.28.61.55.93.83.15.13.31.26.46.39.32.26.66.52,1,.77.15.11.3.22.45.33.5.35,1.01.7,1.55,1.04.02.01.06.04.09.05.05.03.1.05.16.09.03.01.07.04.1.05.07.04.14.08.23.13.05.02.11.05.16.08.09.04.17.09.27.13.06.03.13.07.19.1.1.05.2.1.32.16.08.04.18.08.26.13.11.05.22.11.34.16.13.06.27.13.41.2.08.04.16.07.25.12.15.07.32.15.48.22.08.04.17.08.26.12.25.11.51.22.78.35,1.8.8,3.92,1.68,5.9,2.34l95.22-64.26-.6,68.55-95.23,64.26c-1.97-.66-4.1-1.54-5.9-2.34-.27-.12-.53-.24-.78-.35-.05-.03-.09-.04-.13-.06-.21-.1-.41-.19-.59-.28-.08-.03-.15-.07-.22-.1-.15-.07-.3-.14-.44-.21-.09-.04-.18-.08-.27-.13-.11-.05-.23-.11-.33-.16-.07-.03-.14-.07-.21-.1-.11-.05-.21-.11-.31-.16-.06-.03-.1-.05-.16-.08-.1-.05-.2-.1-.28-.14-.05-.02-.08-.05-.12-.07-.08-.04-.15-.08-.21-.12-.03-.02-.05-.03-.08-.05-.05-.03-.1-.05-.13-.07,0,0-.02-.01-.03-.02-.54-.33-1.05-.68-1.54-1.03-.16-.12-.31-.23-.47-.35-.34-.25-.66-.5-.98-.76-.08-.07-.17-.13-.25-.2-.08-.07-.15-.13-.23-.2-.31-.27-.61-.54-.9-.8-.13-.12-.26-.24-.38-.36-.41-.39-.79-.79-1.16-1.18,0,0,0-.01,0-.01-.03-.03-.05-.05-.07-.08-.35-.38-.68-.77-.99-1.15-.1-.13-.2-.26-.3-.39-.24-.3-.46-.6-.68-.91-.05-.07-.11-.15-.16-.22-.1-.14-.19-.27-.28-.41-.22-.33-.43-.66-.63-1.01-.09-.16-.17-.32-.26-.47-.09-.18-.2-.35-.28-.52,0-.01,0-.02-.01-.03-.23-.46-.45-.91-.65-1.37-.05-.13-.11-.26-.17-.38-.18-.41-.36-.81-.53-1.22-.2-.47-.41-.95-.62-1.41-.04-.08-.08-.18-.12-.26-.17-.37-.34-.73-.52-1.1-.08-.15-.15-.3-.23-.45-.11-.21-.23-.43-.35-.64-.09-.16-.18-.33-.28-.49-.13-.22-.27-.43-.41-.64-.11-.16-.21-.33-.33-.49-.08-.11-.15-.21-.23-.31-.16-.21-.33-.43-.51-.63-.09-.1-.18-.21-.27-.32-.23-.26-.47-.52-.73-.77-.04-.03-.07-.07-.1-.1-.29-.28-.61-.55-.95-.83-.13-.1-.28-.21-.41-.32-.24-.18-.48-.36-.75-.54-.16-.11-.33-.22-.5-.33-.29-.18-.58-.36-.89-.54-.14-.07-.27-.15-.41-.23-.47-.25-.96-.5-1.48-.73-.66-.28-1.35-.52-2.05-.76-.16-.05-.32-.11-.49-.16-.7-.22-1.41-.43-2.15-.6Z"/>
          <path class="cls-22" d="m613.73,640.73l.6-68.55,122.09,51.37-.5,57.05s.08,0,.12.01c.26.03.53.06.79.09.97.11,1.94.21,2.9.29.1,0,.19.01.29.03.71.05,1.4.1,2.1.14.26.02.52.02.79.04.52.03,1.05.05,1.56.07.2,0,.38,0,.58.01,1.23.03,2.44.04,3.62.02.16,0,.32,0,.47-.01.99-.02,1.96-.06,2.91-.12.07,0,.15-.01.22-.01.89-.06,1.76-.14,2.62-.24.22-.03.43-.05.64-.07.73-.08,1.45-.19,2.15-.3.08-.01.17-.03.25-.04.76-.13,1.49-.27,2.22-.43.19-.04.37-.08.55-.12.68-.16,1.33-.33,1.97-.51.09-.02.19-.05.28-.07.13-.04.26-.09.39-.13.35-.11.7-.22,1.04-.33.18-.06.35-.13.52-.19.29-.11.57-.21.85-.33.16-.06.32-.13.47-.2.28-.12.54-.24.81-.37.15-.07.3-.14.44-.21.27-.14.54-.28.79-.42.12-.07.24-.13.36-.2.37-.21.73-.43,1.07-.66,4.58-3.09,5.28-7.06,5.39-11.18,0-1.12.02-2.22.03-3.34.03-3.38.26-6.74,2.5-9.68.47-.62,5.38-4.79,9.53-7.24l121.93,51.31-.6,68.56-121.94-51.31c-4.15,2.44-9.06,6.61-9.53,7.23-2.01,2.64-2.4,5.62-2.48,8.65,0,1.11-.02,2.22-.03,3.33-.04,4.48-.44,8.87-5.41,12.22-.34.23-.7.45-1.06.66-.12.07-.25.13-.37.2-.26.14-.52.28-.79.41-.15.07-.3.14-.45.22-.26.12-.53.24-.8.36-.16.07-.31.13-.47.2-.09.04-.17.07-.26.11-.2.07-.4.15-.61.22-.17.06-.34.13-.51.19-.33.11-.67.22-1.02.33-.14.04-.28.09-.43.13-.02,0-.04.01-.07.02-.06.01-.12.03-.18.04-.65.19-1.32.36-2.01.52-.1.03-.19.05-.29.07-.08.02-.16.03-.24.04-.73.16-1.47.3-2.23.43-.02,0-.03,0-.04.01-.05,0-.11.01-.17.02-.71.12-1.45.21-2.2.3-.11.01-.21.03-.32.04-.1.01-.2.02-.29.03-.86.09-1.73.17-2.62.23-.02,0-.04,0-.06,0-.06,0-.12,0-.18,0-.95.06-1.93.1-2.92.13-.1,0-.2.01-.3.01h-.15c-1.18.02-2.39.01-3.62-.02-.1,0-.19,0-.29,0-.1,0-.21,0-.3-.01-.52-.01-1.04-.04-1.56-.07-.26-.01-.52-.02-.79-.04-.74-.04-1.49-.09-2.24-.16-.04,0-.08,0-.12,0h0c-.97-.08-1.94-.18-2.93-.29-.26-.03-.51-.06-.77-.09-.86-.1-1.73-.21-2.61-.34-.11-.01-.21-.02-.32-.04-.04,0-.07-.01-.11-.01-.81-.12-1.62-.25-2.43-.38-.14-.03-.28-.05-.42-.08-.68-.12-1.37-.24-2.05-.37-.3-.06-.61-.13-.92-.19-.52-.1-1.04-.21-1.56-.32-.34-.07-.68-.15-1.03-.23-.49-.1-.98-.22-1.46-.34-.13-.02-.26-.05-.39-.08-.11-.03-.22-.06-.34-.09-1.32-.32-2.64-.66-3.96-1.04-.17-.05-.35-.1-.52-.15-1.35-.38-2.69-.79-4.02-1.22-.14-.04-.27-.09-.41-.13-1.37-.45-2.73-.92-4.09-1.42-.08-.03-.16-.07-.24-.09-1.4-.52-2.8-1.08-4.18-1.66-.68-.28-1.34-.57-1.99-.86-.93-.41-1.82-.83-2.7-1.26-.3-.14-.59-.29-.89-.44-.57-.29-1.13-.57-1.69-.86-.33-.17-.65-.35-.97-.52-.5-.28-1-.55-1.49-.83-.31-.18-.62-.35-.91-.53-.18-.11-.37-.21-.55-.32-.31-.18-.6-.37-.89-.56-.26-.16-.53-.32-.79-.49-.54-.35-1.06-.69-1.57-1.05-.16-.11-.34-.22-.5-.34-.66-.46-1.3-.93-1.91-1.39-.16-.12-.3-.24-.46-.37-.36-.28-.73-.57-1.07-.85-.06-.05-.12-.11-.19-.17-.45-.38-.87-.75-1.28-1.13-.18-.17-.38-.34-.55-.51-.57-.55-1.12-1.09-1.62-1.64h0c-.44-.49-.85-.97-1.24-1.44-.12-.16-.23-.31-.35-.46-.2-.26-.41-.53-.6-.79-.05-.07-.09-.14-.14-.21-.09-.13-.17-.27-.26-.4-.22-.34-.42-.67-.61-1.01-.08-.14-.16-.28-.23-.42-.04-.08-.09-.16-.13-.24-.18-.35-.34-.7-.49-1.05-.03-.05-.04-.12-.07-.18-.1-.24-.2-.49-.28-.73-.05-.16-.1-.31-.14-.46-.03-.08-.05-.16-.07-.24-.09-.35-.18-.7-.24-1.05-.02-.07-.02-.14-.03-.21-.01-.07-.02-.15-.03-.22-.05-.4-.09-.79-.09-1.18v-.12c.14-16.27.29-32.53.43-48.79l-64.07-26.96Z"/>
          <path class="cls-30" d="m1139.02,541.05l-294.75-124.03-229.94,155.16,122.09,51.37c-2.69,2.28-7.29,4.93-8.23,5.37-4.28,1.95-9.75,3.4-15.06,4.38-10.27,1.89-22.88,1.58-30.19,6.52-11.44,7.72-2.43,21.73,20.08,31.77.65.29,1.32.58,1.99.87,23.96,10.08,52.93,11.82,64.7,3.87,9.56-6.45,2.21-16.69,7.91-24.19.47-.62,5.38-4.79,9.53-7.24l121.93,51.31,95.14-64.19c-.39-.18-.79-.37-1.22-.56-4.7-2.09-11.45-4.35-12.52-4.59-14.19-3.12-33.38.66-45.63-4.49-15.02-6.69-11.96-21.86,6.53-34.33,18.69-12.61,46.07-17.69,61.16-11.35,9.36,4.17,9,10.74,12.63,16.13,1.9,2.83,4.7,5.76,8.43,8.06.45.28,2.15,1.13,4.3,2.09,1.8.8,3.92,1.68,5.9,2.34l95.22-64.26Z"/>
        </g>
        <g class="cls-31">
          <g>
            <path class="cls-40" d="m869.36,820.14c0,.17,0,.33-.02.51,0,.18,0,.37-.02.54-.01.15-.03.29-.05.45-.02.17-.04.35-.07.52-.03.17-.06.34-.1.51-.03.13-.05.26-.08.38-.04.18-.09.35-.14.51-.04.12-.07.24-.11.37-.03.07-.05.14-.08.21-.16.48-.35.94-.58,1.39,0,0,0,.03-.02.03-.22.43-.48.86-.77,1.27-.04.07-.09.14-.14.21-.29.4-.6.79-.95,1.17-.09.11-.19.21-.29.32-.11.12-.22.23-.33.34-.13.12-.26.25-.4.37-.12.11-.24.22-.37.33-.12.1-.23.2-.35.29-.22.17-.44.34-.67.51-.12.08-.24.17-.37.26-.25.17-.51.34-.77.5-.12.07-.23.15-.35.22-.23.14-.47.26-.71.39-.13.08-.26.15-.4.23-.38.19-.78.38-1.19.57-1.56.65-3.2,1.17-4.93,1.59-1.37.33-2.78.6-4.24.8-1.38.2-2.8.35-4.24.47-2.01.16-4.06.26-6.14.31-4.55.13-9.21.09-13.74.21-2.04.06-4.06.15-6.02.31l.61,69.68c1.97-.16,3.98-.26,6.03-.31,4.53-.13,9.19-.08,13.74-.21,2.08-.05,4.13-.15,6.14-.32,1.44-.12,2.86-.27,4.24-.47,1.45-.21,2.87-.48,4.24-.81,1.72-.41,3.37-.93,4.93-1.59.41-.18.81-.37,1.19-.57.11-.05.21-.12.32-.18.27-.14.53-.29.79-.44.03-.02.05-.03.08-.04.08-.05.15-.1.22-.14.28-.17.55-.34.81-.52.12-.09.24-.17.36-.26.22-.17.45-.34.66-.51.07-.05.14-.1.21-.16.05-.04.1-.09.15-.13.12-.11.25-.21.37-.33.13-.12.27-.24.4-.37.12-.11.23-.23.34-.34.07-.08.14-.15.2-.21.03-.03.05-.07.09-.1.34-.38.66-.77.95-1.18.02-.02.04-.05.06-.07.03-.04.04-.09.08-.13.28-.41.54-.84.77-1.28h0s0-.02,0-.02c.23-.46.43-.93.59-1.41.02-.04.04-.07.04-.11,0-.02.02-.05.03-.08.04-.14.08-.28.12-.41.04-.15.09-.3.13-.46.03-.14.06-.28.08-.42.03-.11.05-.23.08-.34,0-.05,0-.08.02-.13.03-.18.05-.37.07-.56.02-.13.03-.27.04-.4.01-.21.02-.42.03-.63,0-.1.01-.2.01-.3v-.14l-.61-69.68Z"/>
            <path class="cls-40" d="m813.18,837.28s-.05,0-.07.02c-1.29.31-7.97,2.56-12.65,4.65-.43.19-.85.38-1.24.58l.61,69.68c.39-.2.81-.38,1.25-.58,4.68-2.08,11.35-4.32,12.64-4.65.03,0,.05,0,.07-.02,1.1-.24,2.22-.44,3.37-.61,1.37-.2,2.78-.35,4.21-.46l-.61-69.68c-1.44.12-2.84.27-4.21.47-1.15.16-2.28.37-3.37.61Z"/>
          </g>
          <path class="cls-43" d="m896.51,977.45l-.61-69.68-124.09,52.22.51,57.98c-14.41,1.72-27.35.37-34.35-4.34-4.65-3.14-5.36-7.16-5.47-11.33-.01-1.14-.02-2.29-.03-3.45-.03-3.43-.27-6.83-2.53-9.81-.48-.63-5.47-4.87-9.68-7.36l-123.95,52.15.61,69.68,123.95-52.16c4.21,2.48,9.2,6.73,9.68,7.36,2.03,2.67,2.43,5.68,2.51,8.74,0,1.15.02,2.3.03,3.45.04,4.55.45,9,5.5,12.4,11.97,8.08,41.4,6.31,65.76-3.94.69-.29,1.36-.58,2.02-.88,16.2-7.22,25.53-16.47,25.46-24.04-.15-16.54-.29-33.06-.44-49.59l65.12-27.4Z"/>
          <path class="cls-40" d="m860.06,832.5l.61,69.68c-12.97,5.46-32.47,1.62-46.89,4.78-1.09.25-7.94,2.53-12.71,4.67-.44.19-.85.38-1.25.58l-.61-69.68c.39-.2.81-.39,1.24-.58,4.78-2.13,11.63-4.42,12.72-4.67,14.41-3.17,33.92.68,46.88-4.78Z"/>
          <polygon class="cls-40" points="596.31 1033.82 362.59 876.13 363.2 945.8 596.92 1103.51 596.31 1033.82"/>
          <path class="cls-27" d="m826.17,976.51c-7.43-5.02-20.26-4.7-30.69-6.62-5.41-1-10.96-2.47-15.32-4.46-.94-.43-5.62-3.13-8.36-5.44l124.09-52.22-96.68-65.24c.39-.2.81-.39,1.24-.58,4.78-2.13,11.63-4.42,12.72-4.67,14.41-3.17,33.92.68,46.88-4.78,14.76-6.58,11.65-22-7.15-34.68-18.99-12.82-46.83-17.98-62.62-11.33-9.05,4.04-8.69,10.71-12.37,16.18-1.94,2.89-4.79,5.86-8.58,8.2-.45.27-2.2,1.15-4.4,2.14-1.82.81-3.96,1.69-5.95,2.37l-96.8-65.32-299.59,126.07,233.71,157.7,123.95-52.15c4.2,2.49,9.2,6.72,9.68,7.36,5.79,7.62-1.68,18.03,8.04,24.59,11.97,8.07,41.41,6.3,65.76-3.94.69-.29,1.36-.59,2.02-.88,22.88-10.2,32.04-24.45,20.42-32.29Z"/>
        </g>
        <g>
          <path class="cls-20" d="m1446.83,1243.61c0,41.37,75.38,74.91,168.36,74.91s168.36-33.53,168.36-74.91-75.38-74.91-168.36-74.91-168.36,33.54-168.36,74.91Z"/>
          <g>
            <g>
              <path class="cls-15" d="m1558.47,1226.81c-11.89,11.97-31.5,18.36-31.5,18.37-16.53,4.2-26.25-6.8-26.25-6.8-3.55-4.96.77-7.69.77-7.69,34.85-26.5,45.28-34.01,45.28-34.01h31.99c1.57,12.87.7,18.05.7,18.05-2.78,3.79-8.64,9.14-17.55,10.64-.66.11-1.89-.86-2.51-.6l-.93,2.04Z"/>
              <path d="m1501.34,1230.81c.13.74.34,1.48.67,2.19,2.7,5.8,10.23,8.19,16.2,8.11,7.17-.1,13.68-3.61,19.92-6.76,6.02-3.04,11.3-6.9,16.5-11.19,3.61-2.99,8.21-4.38,12.47-6.24,4.8-2.1,8.43-5.36,12.58-8.48.02,3.45-.22,6.31-.22,6.31-2.78,3.79-8.64,9.14-17.55,10.64-.66.11-1.89-.86-2.51-.6l-.93,2.04c-11.89,11.97-31.5,18.36-31.5,18.37-16.53,4.2-26.25-6.8-26.25-6.8-3.15-4.41-.11-7.04.62-7.58Z"/>
            </g>
            <g>
              <path class="cls-53" d="m1582.29,937.24c-35.58,39.28-49.68-2.27-49.68-2.27l-4.41-241.44c-.46,3.59-1.64-24.35,43.27-18.3,44.79,6.04,56.13,23.5,56.13,23.5,0,0-24.64,166.76-45.31,238.51"/>
              <path class="cls-53" d="m1532.39,931.92s18.05,254.26,19.52,263.19c0,0,21.94,4.85,22.04-.2.25-12.18,25.3-160.97,25.63-180.11.82-48.45-11.67-57.61-24.13-90.25,0,0-43.15-31.91-43.06,7.38Z"/>
            </g>
            <path class="cls-47" d="m1593,946.38c20.67-71.75,34.6-247.65,34.6-247.65,0,0-11.34-17.46-56.13-23.5-44.91-6.05-43.73,21.89-43.27,18.3,0,0-13.61,130.92-1.15,249.91,0,0,38.37,20.38,65.95,2.94Z"/>
            <path class="cls-19" d="m1660.89,564.03c6.35,22.59,32.54,108.8,32.54,108.8-93.77,112.18-164.41,14.02-165.34,3.79-1.12-12.25,12.55-59.01,15.03-109.45,0,0,25.57-39.36,117.77-3.14Z"/>
            <path class="cls-47" d="m1528.63,704.71c-4.45-30.22,4.77-60.69,9.51-91.22h137.36c8.79,29.28,17.93,59.35,17.93,59.35,0,0,5.87,69.26-52.95,77.56,0,0-102.51,17.77-111.85-45.69Z"/>
            <g>
              <path class="cls-19" d="m1684.88,942.53c-29.37,44.12-49.46,5.12-49.46,5.12l-47.64-235.2c.07,3.62,1.43-30.63,46.74-31.3,45.19-.67,58.99,14.92,58.99,14.92,0,0,1.18,172.45-8.63,246.47"/>
              <path class="cls-19" d="m1634.74,944.65s47.17,267.94,49.95,276.54c0,0,22.42,1.55,21.77-3.46-1.56-12.08,2.49-181.04-.03-200.01-6.37-48.04-13.03-56.3-30.19-86.74,0,0-47.4-25.16-41.5,13.67Z"/>
            </g>
            <g>
              <path class="cls-15" d="m1682.55,1216.01l-13.27,40.46s2.74,36.22,31.79,13.78l8.65-8.39c4.41-3.74,3.12-8.89,3.12-8.89l-2.58-15.5-3.08-21.46s-18.2-12.36-24.63,0Z"/>
              <path d="m1701.07,1265.08l8.65-8.38c1.72-1.46,2.57-3.14,2.97-4.63l.15.91s1.29,5.15-3.12,8.89l-8.65,8.39c-29.05,22.45-31.79-13.78-31.79-13.78l.52-1.58c1.63,8.55,8.03,28.14,31.27,10.18Z"/>
            </g>
            <path class="cls-46" d="m1629.61,954.13c-16.55-48.56-47.78-249.43-47.78-249.43.07,3.62,9.35-47.97,54.67-48.64,45.19-.67,56.93,16.77,56.93,16.77,0,0,14.15,196.59,4.34,270.61,0,0-31.83,36.76-68.16,10.69Z"/>
            <path class="cls-53" d="m1550.08,409.52s-76.73,90.23-114.88,120.13c0,0-25.64-9.48-24.85-26.9,0,0,56.18-83.1,91.44-132.26,0,0,47.69-13.73,48.29,39.03Z"/>
            <path class="cls-53" d="m1421.46,495.21s-83.79,48.77-118.48,65.08c0,0-6.23,9.74,3.82,10.67,16.8,1.54,133.54-38,136.39-47.18,13.3-42.79-21.73-28.57-21.73-28.57Z"/>
            <path class="cls-53" d="m1498,399.45c6.03,16.11,23.92,24.4,39.97,18.5,16.04-5.9,24.17-23.73,18.14-39.86-6.04-16.11-23.92-24.4-39.98-18.5-16.04,5.9-24.16,23.74-18.13,39.86Z"/>
            <path class="cls-49" d="m1536.31,357.87s-27.35-9.59-46.15,17.25l-66.92,97.08s13.79,30.91,46.37,47.78c0,0,119.82-110.34,66.71-162.11Z"/>
            <path class="cls-5" d="m1613.84,325.27s5.52-10.63,17.71-31.01c0,0,25.93-26.63,11.4-60.1,0,0-7.98-27.98-56.92-23.92,0,0-4.68,77.04,27.81,115.04Z"/>
            <path class="cls-19" d="m1615.78,281.66s-8.23,76.78,9.33,82.58l-62.62-3.73s9.84-23.2-1.6-40.31l54.89-38.54Z"/>
            <path class="cls-42" d="m1565.93,347.1c1.04-17.54-1.16-21.1-5.04-26.9l54.89-38.54s-2.65,24.8-1.73,47.28c-15.89,15.04-29.02,18.58-48.12,18.16Z"/>
            <path class="cls-19" d="m1518.33,357.71c-13.95,10.18-15.55,34.54-10.57,49.76,5.71,17.48,7.98,39.78,13.7,65.05,7.75,34.25,13.01,60.63,21.65,94.64,7.16,28.13,120.2,5.46,120.2,5.46l40.51-138.44s6.98-36.14-25.76-48.17c0,0-34.49-18.62-59.74-27.17-22.3-7.55-30.37-8.26-53.27-6.85,0,0-30.67,1.13-46.72,5.71Z"/>
            <path class="cls-52" d="m1538.47,216.06c-3.23,14.73-6.89,22.42-2.83,35.93,3.66,12.12,2.81,24.87,8.11,36.62,7.55,16.76,17.38,14.57,24.9-.85,7.69-15.79,15.71-37.11-1.66-48.81-11.15-7.51-15.17-20.42-28.52-22.89h0Z"/>
            <path class="cls-5" d="m1548.14,331.14l-2.61-8.68s-6.59-32.09-6.59-32.1c-.83-4.04-.51-9.33.51-13.34,1.11-4.37,1.95-8.95,1.14-13.7-3.95-23.03,8.57-35.01,8.57-35.01,14.34-20.38,45.82-18.78,45.82-18.78,38.84,3.88,40.22,41.72,40.22,41.72,5.06,25.37-15.93,45.24-15.97,45.28-1.68,1.58-1.27,9.87-1.87,12.2-2.56,9.9-12.44,15.56-21.12,19.37-9.55,4.18-21.07,8.56-31.54,8.99-3.97.17-15.08-.98-16.57-5.96Z"/>
            <path class="cls-52" d="m1539.74,289.77c5.1,4.6,12.05,2.5,17.48,5.84,3.55,2.18,5.32,2.04,9.2.9,3.11-.91,5.61-.62,8.78.29,3.24.94,9.12,3.76,12.27,5.02,4.81,1.94,10.2,1.33,13.93-3.21,3.9-4.76,5.38-5.74,7.22-11.44,3.37-10.5,13.99-11.13,21.3-5.24-4.79,8.99-10.65,14.59-10.68,14.61-1.68,1.58-1.27,16.72-1.87,19.05-2.56,9.9-12.44,15.56-21.12,19.37-9.55,4.18-24.12,4.76-34.59,5.2-3.97.16-12.03-4.03-13.52-9.01l-2.61-8.68s-6.59-32.09-6.59-32.1c-.12-.56-.16-1.18-.23-1.79.33.41.63.84,1.02,1.19Z"/>
            <path class="cls-52" d="m1539.03,229.75c8.79.01,8.69,7.36,15.43,11.46,14.44,8.78,36.85-4.09,48.48,10.15,1.05,1.29,2.02,2.78,2.95,4.51,3.43,6.42,4.46,14.17,5.55,21.28.32,2.1-1.24,7.47.68,9.07,1.09.93,2.99.65,5,.01.39,3.21-2.2,5.69-3.31,8.64-1.11,2.97-2.85,5.49-1.28,8.48,4.06,7.7.95,6.43,1.31,21.91,2.51-3.67,8.69-8.12,10.64-9.83,5.65-4.92,10.98-10.29,15.03-16.63,3.96-6.21,6.56-13.19,9.13-20.05,4.2-11.26,6.62-23.44,3.25-35.25,0,0-2.66-27.44-25.62-30.38,0,0,2.92-17.67-39.04-22.35,0,0-33.13.52-34.95-10.91,0,0-6.7,5.72-5.04,14.55,0,0-13.63,4.15-19.75-11.44,0,0-11.35,41.06,11.53,46.77Z"/>
            <g>
              <path class="cls-5" d="m1613.25,303.01c1.03,1.33,2.47,2.27,4.4,2.62,5.22.96,10.46-3.9,11.69-10.87,1.23-6.94-2-13.36-7.22-14.31-2.47-.45-4.96.41-7.01,2.17-2.98,2.58-3.97,8.24-4,12.27-.02,3.23.6,6.12,2.14,8.12Z"/>
              <g>
                <path class="cls-54" d="m1618.88,286.63c.81-3.65,7.84.78,6.47,2.72-.8,1.12-2.21,1.84-3.34,2.55-1.55.99-2.36,1.95-2.78,3.76-.05.21-.17.85.03,1.02.89.79,4.48-2.44,5.27-3.11,1.54-1.33,2.04-3.86,1.61-5.79-.46-2.05-1.64-3.14-3.77-3.27-1.68-.1-3.4-.2-3.56,1.91,0,.04.03.4.07.21h0Z"/>
                <path class="cls-54" d="m1620.8,290.75c-.68-.88-1.5-.32-2.36.16-.8.45-1.31,1.16-1.6,2.01-.66,1.87-.71,4.46.19,6.27.72,1.46,2.12,2.47,3.75,2.62,2.25.2,3.16-1.71,3.48-3.59.09-.51.27-1.71-.19-2.08-.5-.4-.98.38-1.38.7-.56.42-1.31.51-1.99.49-1.3-.04-2.47-.84-3.17-1.89-.12-.19-.22-.4-.27-.62-.15,1.24-.12,1.53.1.86.14-.31.32-.58.53-.83.62-.8,1.58-1.29,2.25-2.04.32-.34,1.01-1.62.66-2.06h0Z"/>
              </g>
            </g>
            <path class="cls-54" d="m1559.31,287.86l10.58,4.09s-14.28.89-14.83-3.26c0,0,2.16-8.1,4.5-15.77,0,0-1.83,14.33-.26,14.94Z"/>
            <g>
              <path class="cls-52" d="m1577.78,272.92c0,2.24,1.24,4.05,2.75,4.05s2.75-1.8,2.75-4.05-1.23-4.04-2.75-4.04-2.75,1.81-2.75,4.04Z"/>
              <path class="cls-52" d="m1547.25,269.52c0,2.24,1.24,4.04,2.75,4.04s2.75-1.8,2.75-4.04-1.23-4.04-2.75-4.04-2.75,1.81-2.75,4.04Z"/>
              <path class="cls-52" d="m1574.92,265.07c-.99.2-1.23-1.13-1.23-1.13-.31-1.29.07-2.37.07-2.37.4-.91,1.18-1.2,1.18-1.2,2.55-.35,7.5.28,11.69,1.53,2.32.69,6.08,2.42,6.33,4.56.07.64.13,1.74-.59,1.94,0,0-7.99-2.47-17.44-3.33Z"/>
              <path class="cls-52" d="m1540.21,261.59c2.78.05,7.67.3,13.65,1.43.9.47,1.49-.74,1.49-.74.65-1.15.58-2.3.58-2.3-.13-.98-.8-1.47-.8-1.47-2.36-1.04-5.74-1.64-10.12-1.58-1.31.02-3.57.2-5.08.69,0,0-.29.81.29,3.98Z"/>
            </g>
            <path class="cls-3" d="m1553.4,300.78c-.86,0-1.33.39-1,1.02,0,0,3.81,7.15,10.47,7.96s12.11-5.23,12.11-5.23c.53-.59.07-1.18-1.01-1.32,0,0-11.51-1.47-20.57-2.44Z"/>
            <path class="cls-46" d="m1683.94,645.42s24.05,38.83,0,82.34c-24.06,43.52-97.5,27.65-97.72-28.71-.22-55.68,50.46-76.97,97.72-53.63Z"/>
            <path class="cls-49" d="m1565.05,352s-30.67,1.13-46.72,5.71c-13.95,10.18-15.55,34.54-10.57,49.76,5.71,17.48,7.98,39.78,13.7,65.05,7.75,34.25-2.02,59.29,6.62,93.3,7.16,28.13,156.74,0,156.74,0l19-131.64s6.98-36.14-25.76-48.17c0,0-32.93-18.07-58.18-26.63,0,0,3.94,26.63-39.47,19.28,0,0-26.52-6.39-15.36-26.67Z"/>
            <path class="cls-49" d="m1684.82,565.83c6.35,22.59,11.37,98.77,11.37,98.77-17.2,71.31-175.39,20.01-176.33,9.77-1.12-12.25,3.73-70.52,6.21-120.96,0,0,66.54-23.8,158.75,12.42Z"/>
            <path class="cls-19" d="m1638.19,437.57c10.32,20.99,48.64,126.95,60.95,143.7,3.28,4.45,34.85,24.8,41.96-2.94-17.41-109.99-43.73-172.73-43.73-172.73,0,0-30.75-25.64-55.31-1.94,0,0-11.15,19.36-3.87,33.9Z"/>
            <path class="cls-19" d="m1633.84,418.8c-3.4,20.15,10.18,39.25,30.33,42.64,20.15,3.4,39.24-10.18,42.64-30.33,3.4-20.16-10.18-39.24-30.33-42.65-20.15-3.4-39.24,10.18-42.64,30.33Z"/>
            <path class="cls-49" d="m1670.33,381.98s31.8,11.93,39.33,37.73l19.63,70.24s-25.72,37.41-64.05,36.16l-37.88-84.13s-25.48-47.25,42.97-60.01Z"/>
            <path class="cls-53" d="m1263.22,582.91l9.79-.27s-17.87,4.59-23.62-1.22c0,0-1.47-.91.82-2.99,0,0,15.8-.54,22.75-2.53,0,0-15.63,3.78-26.76,2.65,0,0-4.36-2.86.34-5.46-3.54-1.38-.52-3.71-.52-3.71,0,0,3.19-1.78,10.64-4.1,0,0,11.45-3.65,24.39-9.51,0,0-10.31-6.75-6.45-12.19l15.9,8.39,14.39,9.25,1.91,9.74-14.97,10.41s-14.55,5.85-22.79,6.13c0,0-23.64-.84-5.82-4.59Z"/>
            <path class="cls-46" d="m1629.61,954.13l41.14,256.39s13.63,13.14,45.26,0l5.25-125.27s9.29-82.77-23.49-141.8c0,0-64.57-52.11-68.16,10.69Z"/>
            <path class="cls-47" d="m1593,946.38s17.51,25.33,1.82,120.44l-16.06,129.87s-18.47,11.06-39.26.5l-12.95-258.73s11.61-43.92,66.45,7.91Z"/>
          </g>
        </g>
        <g class="cls-31">
          <path class="cls-51" d="m1292.81,633.39c-.03-3.12-1.65-5.95-5.05-8.25-.54-.36-1.11-.69-1.71-1-.19-.1-.38-.18-.57-.28-.43-.21-.86-.41-1.31-.59-.11-.05-.21-.1-.33-.15-.09-.04-.2-.06-.3-.1-.72-.27-1.45-.53-2.21-.75-.01,0-.03,0-.04-.01,0,0-.01,0-.02,0-.77-.22-1.57-.42-2.38-.6-.09-.03-.18-.06-.27-.07-.11-.02-.23-.04-.34-.07-.95-.21-1.93-.39-2.92-.56-.03,0-.05,0-.08-.01-.08-.01-.17-.03-.25-.04-1.03-.16-2.06-.32-3.11-.45-.11-.02-.22-.04-.33-.05-1.1-.15-2.21-.27-3.32-.39-.06-.01-.13-.02-.19-.03-.9-.1-1.8-.21-2.7-.31-1.06-.12-2.11-.24-3.16-.38-.19-.03-.38-.05-.57-.07-1.03-.14-2.04-.29-3.04-.44-.52-.09-1.04-.17-1.55-.27-1.05-.19-2.1-.41-3.15-.63-.19-.04-.38-.08-.56-.13-.77-.17-1.53-.35-2.29-.54-.02,0-.04-.01-.06-.02-.77-.2-1.52-.4-2.27-.62-.24-.07-.48-.15-.72-.22-.52-.15-1.03-.32-1.53-.48-.25-.08-.5-.16-.74-.26-.52-.18-1.04-.37-1.54-.55-.19-.08-.39-.15-.57-.22-.65-.26-1.27-.52-1.88-.79-.95-.44-5.62-3.14-8.36-5.45l.61,69.68c2.74,2.33,7.41,5.01,8.36,5.45.6.27,1.23.54,1.87.8.05.01.09.04.14.05.14.05.29.1.44.16.51.2,1.02.38,1.55.57.24.09.48.16.72.24.52.17,1.05.34,1.58.5.15.04.29.08.44.13.07.03.15.04.23.06.75.22,1.52.43,2.29.63,0,0,0,0,0,0,.77.19,1.56.37,2.34.55.08.02.15.04.22.05.11.02.21.05.32.07,1.06.23,2.11.45,3.17.64.43.08.86.15,1.3.23.08.01.17.02.26.04,1,.16,2,.3,3.03.44.2.03.4.05.61.08,1.03.13,2.06.25,3.1.37.01,0,.02,0,.03,0,.68.07,1.37.15,2.05.23.27.03.55.07.83.09,1.13.13,2.25.27,3.37.41.09.01.18.03.26.04,1.06.14,2.11.29,3.15.46.11.01.22.03.33.05,1,.16,1.97.35,2.92.55.21.05.41.09.62.14.81.18,1.62.38,2.39.61.78.23,1.52.49,2.25.77.21.08.42.16.62.24.45.18.89.38,1.32.59.19.09.38.18.56.27.59.31,1.17.64,1.71,1.01,3.39,2.29,5.02,5.13,5.05,8.24l-.61-69.68Z"/>
          <path class="cls-39" d="m1191.85,786.84c.23-.05.47-.11.71-.16.32-.07.64-.15.97-.21.27-.05.54-.09.81-.14.23-.04.46-.08.68-.12l.51,58.39,96.69,65.24-.61-69.68-80.09-54.05c1.17.14,2.35.3,3.53.5.28.04.54.09.82.14.44.08.88.15,1.33.24.32.05.64.12.95.19.42.08.85.17,1.27.26.3.07.59.13.89.2.69.16,1.37.32,2.06.5.19.04.38.09.57.15.86.22,1.72.46,2.58.71.17.05.33.1.49.15,1.18.35,2.36.72,3.54,1.13.06.02.12.04.18.06,1.17.4,2.34.83,3.5,1.28.1.04.19.08.28.12,1.33.52,2.64,1.08,3.94,1.66.06.03.13.05.19.09,1.32.59,2.62,1.22,3.89,1.89.04.02.08.04.12.06,1.3.67,2.57,1.38,3.81,2.11.02.01.05.03.06.04,1.27.75,2.5,1.52,3.7,2.33,10.68,7.2,16.29,15.29,16.35,22.18-.2-23.23-.41-46.46-.61-69.68-.06-6.88-5.68-14.97-16.35-22.17-1.2-.81-2.44-1.59-3.7-2.33-.02-.01-.04-.02-.07-.04-1.24-.73-2.51-1.43-3.81-2.1-.05-.03-.09-.05-.13-.07-1.28-.66-2.57-1.29-3.89-1.89-.06-.03-.13-.05-.19-.08-1.3-.59-2.62-1.14-3.94-1.67-.03-.01-.05-.02-.08-.03-.07-.02-.14-.05-.21-.07-1.17-.46-2.34-.89-3.53-1.3-.04-.02-.09-.03-.13-.05-1.19-.41-2.38-.78-3.57-1.13-.09-.03-.18-.06-.27-.09-.06-.01-.12-.03-.18-.05-.87-.26-1.73-.49-2.6-.72-.18-.04-.35-.08-.53-.13-.71-.18-1.42-.35-2.12-.51-.13-.03-.26-.07-.4-.1-.15-.03-.29-.06-.44-.09-.44-.1-.88-.19-1.33-.28-.3-.06-.61-.12-.92-.18-.45-.08-.89-.16-1.34-.24-.22-.04-.44-.09-.65-.12-.05-.01-.11-.02-.17-.02-1.2-.2-2.39-.37-3.57-.51-.09-.01-.19-.02-.28-.04-.07-.01-.14-.01-.21-.02-1.03-.11-2.06-.21-3.08-.28-.08,0-.17-.02-.25-.02-.11,0-.22,0-.33-.01-1.89-.12-3.74-.16-5.54-.11-.1,0-.21,0-.32,0-.09,0-.18,0-.28.01-.88.03-1.74.07-2.59.14h-.06s-.1.02-.15.02c-.89.07-1.75.17-2.6.29-.09.01-.19.02-.27.03-.07,0-.13.03-.2.03-.35.05-.7.12-1.04.18-.25.05-.5.09-.74.13-.36.07-.71.15-1.06.22-.19.04-.38.07-.56.12-.03,0-.05.01-.08.02-.75.18-1.49.4-2.2.62-.17.05-.32.11-.48.16-.72.24-1.42.49-2.09.77-.54.24-1.03.49-1.51.74-.14.08-.28.16-.42.24-.17.09-.35.18-.51.28-.14.09-.26.17-.4.26-.17.12-.35.23-.51.34-.26.18-.51.36-.75.55-.14.11-.29.22-.42.32-.05.04-.1.08-.15.12-.28.24-.56.48-.81.72-.03.03-.06.07-.1.09-.21.2-.41.41-.6.62-.06.06-.11.13-.16.19-.09.1-.18.21-.27.31-.18.22-.36.43-.52.66-.08.1-.16.2-.23.3-.04.05-.08.11-.12.16-.08.12-.15.23-.22.35-.14.21-.28.43-.41.65-.1.16-.2.33-.29.5-.12.21-.24.43-.35.63-.04.07-.08.14-.12.22-.04.08-.08.16-.12.24-.19.37-.36.75-.53,1.12-.04.09-.08.17-.11.25-.22.5-.44,1-.65,1.5-.16.38-.33.77-.5,1.15-.06.15-.13.29-.2.44-.21.46-.42.91-.65,1.37-.12.24-.25.48-.38.71-.06.12-.12.23-.18.34-.2.34-.41.69-.64,1.02-.14.21-.3.42-.45.63-.22.3-.46.61-.7.93-.1.13-.2.26-.31.39-.32.39-.66.79-1.01,1.18-.03.02-.05.06-.08.1-.38.4-.78.8-1.19,1.21-.12.12-.25.23-.37.35-.3.28-.62.56-.94.83-.16.13-.32.27-.48.4-.32.26-.66.52-1,.77-.16.12-.31.24-.47.36-.51.35-1.03.71-1.57,1.05-.04.02-.11.05-.17.09-.03.02-.04.02-.07.05-.06.03-.14.07-.22.12-.04.02-.07.04-.12.07-.08.04-.17.09-.26.13-.06.04-.12.06-.18.1-.09.04-.19.09-.28.14-.08.04-.16.08-.26.12-.09.05-.19.09-.28.14-.11.05-.21.11-.33.16-.1.04-.21.1-.32.15-.12.06-.23.11-.36.17-.16.08-.33.16-.51.23-.08.04-.15.08-.23.12-.26.12-.52.24-.8.35-1.82.82-3.96,1.7-5.95,2.37l-96.81-65.32.61,69.69,96.81,65.32c1.98-.68,4.12-1.56,5.95-2.37.53-.24,1.03-.47,1.5-.68,0,0,.02,0,.03-.02.22-.1.42-.19.63-.29.01-.01.03-.02.05-.03.15-.08.3-.14.44-.21.06-.03.12-.06.18-.09.12-.05.22-.1.32-.16.07-.03.14-.07.21-.1.09-.04.17-.08.24-.13.07-.03.14-.07.21-.1.06-.03.12-.06.17-.09.06-.04.12-.07.18-.1.04-.02.08-.04.11-.06.04-.02.08-.05.11-.06,0-.01.02-.02.03-.02.55-.34,1.07-.7,1.58-1.05.15-.11.3-.22.46-.34.35-.26.69-.52,1.02-.79.08-.06.17-.12.25-.19.08-.07.15-.13.23-.2.32-.28.63-.55.93-.84.13-.12.26-.24.38-.35.41-.4.81-.8,1.18-1.21,0,0,0,0,.01-.02.03-.03.05-.06.08-.09.35-.39.68-.77,1-1.16.11-.13.21-.27.32-.41.24-.3.46-.6.68-.91.06-.08.12-.16.18-.24.09-.13.18-.26.27-.39.23-.34.44-.68.64-1.03.07-.12.13-.25.2-.37.12-.21.23-.42.34-.63,0,0,.01-.02.02-.03.23-.46.44-.91.65-1.38.06-.15.12-.29.19-.43.16-.38.33-.76.5-1.15.21-.51.44-1.02.66-1.53.03-.07.07-.14.1-.21.17-.39.36-.77.55-1.15.07-.15.15-.3.23-.44.12-.22.23-.45.36-.66.09-.17.18-.33.28-.49.13-.21.27-.43.42-.64.11-.17.22-.34.34-.51.08-.1.15-.2.23-.31.16-.21.33-.43.51-.65.09-.1.18-.21.28-.32.24-.27.48-.53.75-.79.03-.04.06-.07.1-.1.3-.29.62-.57.96-.84.13-.11.28-.22.41-.32.24-.19.5-.37.76-.55.16-.11.33-.22.51-.33.29-.18.59-.37.91-.55.14-.07.27-.15.42-.23.47-.26.97-.51,1.51-.75.67-.28,1.37-.53,2.09-.77.16-.05.32-.11.49-.16.71-.23,1.44-.43,2.19-.62Z"/>
          <polygon class="cls-9" points="1591.2 714.1 1591.82 783.78 1292.22 909.85 1291.61 840.17 1591.2 714.1"/>
          <path class="cls-48" d="m1057.9,682.46l123.93-52.15c4.22,2.49,9.21,6.72,9.7,7.35,5.79,7.63-1.68,18.04,8.04,24.6,11.97,8.07,41.4,6.3,65.76-3.94.68-.29,1.35-.57,2.01-.87,22.89-10.21,32.06-24.46,20.43-32.31-7.44-5.01-20.25-4.7-30.69-6.62-5.4-.99-10.95-2.47-15.31-4.46-.95-.44-5.62-3.14-8.36-5.45l124.09-52.21,233.71,157.7-299.59,126.06-96.69-65.24c.38-.19.78-.37,1.2-.55,4.78-2.13,11.67-4.44,12.76-4.68,14.42-3.17,33.92.68,46.38-4.56,15.27-6.8,12.15-22.22-6.63-34.9-19-12.82-46.83-17.98-62.16-11.53-9.52,4.24-9.15,10.91-12.83,16.38-1.94,2.89-4.79,5.86-8.58,8.2-.45.27-2.2,1.15-4.4,2.13-1.82.82-3.96,1.7-5.95,2.37l-96.81-65.32Z"/>
        </g>
        <g>
          <path class="cls-5" d="m637.79,1010.79s10.25-6.65.41-18.92c-25.44-1.62-55.35-15.36-55.35-15.36-37.4-11.77-89.93-69.66-113.84-96-26.86-29.58-67.52-4.47-45.7,29.3,40.83,63.19,148.13,104.85,213.94,102.38"/>
          <path class="cls-17" d="m359.37,1304.71c15.63-73.01,20.31-242.11,20.31-242.11,0,0-12.52-16.62-57.62-19.53-45.22-2.92-42.1,24.87-41.89,21.27,0,0,.04,119.67,20.75,237.5,0,0,32.16,22.19,58.46,2.87Z"/>
          <path class="cls-6" d="m280.62,1072.62c-4.45-30.21,4.76-60.69,9.51-91.22h137.36c8.79,29.28,17.92,59.35,17.92,59.35,0,0,5.88,69.26-52.95,77.56,0,0-102.51,17.77-111.85-45.69Z"/>
          <path class="cls-20" d="m199.98,1599.86c0,58.23,106.1,105.44,236.97,105.44s236.96-47.2,236.96-105.44-106.09-105.43-236.96-105.43-236.97,47.21-236.97,105.43Z"/>
          <g>
            <path class="cls-15" d="m574.79,1596.04l-7.83-.45c-2.67-.41-2.65,3.78-3.01,3.92-8.19,3.23-15.46,5.75-18.53,5.88,0,0-14.48-1.88-16.03-6.27l2.05-26.86c16.13-1.36,32.97-4.48,32.97-4.48l35.46-4.98c17.06-1.78,20.17,4.39,20.17,4.39,0,0,10.45,15.6-45.25,28.85Z"/>
            <path class="cls-26" d="m553.27,1594.46c2.59-1.2,6.43-2.5,9.17-2.98,17.49-3.06,34.6-4.8,49.17-16.04,3.56-2.75,6.07-6.16,6.32-10.24,1.61,1.05,2.11,2,2.11,2,0,0,10.45,15.6-45.25,28.85l-7.83-.45c-2.67-.41-2.65,3.78-3.01,3.92-8.19,3.23-15.46,5.75-18.53,5.88,0,0-14.48-1.88-16.03-6.27l.5-6.55c5.76,3.31,15.94,5.32,23.37,1.88Z"/>
          </g>
          <g>
            <path class="cls-15" d="m337.89,1589.39l-7.83-.45c-2.67-.41-2.65,3.78-3.01,3.92-8.18,3.22-15.45,5.75-18.53,5.88,0,0-14.47-1.88-16.02-6.27l2.03-26.86c16.14-1.36,32.98-4.48,32.98-4.48l35.46-4.99c17.06-1.78,20.16,4.4,20.16,4.4,0,0,10.45,15.6-45.25,28.85Z"/>
            <path class="cls-26" d="m316.36,1587.8c2.6-1.2,6.43-2.5,9.17-2.98,17.5-3.06,34.61-4.8,49.17-16.05,3.56-2.75,6.07-6.16,6.32-10.23,1.61,1.05,2.11,2,2.11,2,0,0,10.45,15.6-45.25,28.85l-7.83-.45c-2.67-.41-2.65,3.78-3.01,3.92-8.18,3.22-15.45,5.75-18.53,5.88,0,0-14.47-1.88-16.02-6.27l.49-6.54c5.76,3.31,15.94,5.31,23.37,1.88Z"/>
          </g>
          <path class="cls-17" d="m334.88,1567.57c5.81-6.93,24.87-261.63,24.87-261.63,3.16-39.15-61.94-22.72-61.94-22.72-9.48,38.98-7.95,46.32-10.93,94.68-1.18,19.11,1.86,177.33,1.16,189.5,0,0,30.22,20.02,46.84.16Z"/>
          <path class="cls-41" d="m384.83,1016.79s39.09,66.56,15.04,110.07c-24.05,43.52-125.41-3.84-119.18-54.23,6.83-55.26,56.89-79.19,104.15-55.84Z"/>
          <path class="cls-19" d="m412.87,931.94c6.35,22.59,32.54,108.8,32.54,108.8-71.77,67.69-164.4,14.02-165.34,3.79-1.11-12.25,12.55-59.01,15.04-109.45,0,0,25.56-39.36,117.77-3.14Z"/>
          <path class="cls-41" d="m499.23,1292.07c-7.62-74.28-60.53-263.76-60.53-263.76,0,0-15.46-14.24-59.27-3.11-43.92,11.16-48.65,68.31-49.57,64.8,0,0,50.97,119.93,118.79,225.6,0,0,32.76,16.77,50.57-23.53Z"/>
          <path class="cls-41" d="m565.32,1564.73c-1.29-8.95-67.34-275.09-67.34-275.09-15.55-32.82-60.2,1.74-60.2,1.74.15,23.82.79,52.56,16.17,98.51,6.07,18.15,62.23,182.51,66.14,194.04,0,0,33.19,10.52,45.23-19.2Z"/>
          <g>
            <path class="cls-53" d="m243.38,759.46s-7.1,119.54-2.57,167.8c0,0,0,21.93,38.62,32.92,0,0,14.05-133.09,25.49-192.5,0,0-22.81-44.06-61.54-8.21Z"/>
            <path class="cls-53" d="m286.51,790.33c-15.85,6.71-34.17-.59-40.92-16.29-6.75-15.7.62-33.87,16.47-40.58,15.85-6.71,34.17.59,40.92,16.3,6.75,15.71-.62,33.87-16.47,40.57Z"/>
          </g>
          <path class="cls-24" d="m270.31,725.63s-28.23,6.54-29.74,39.28l-4.57,117.82s28.2,18.73,64.74,15.54c0,0,42.15-157.34-30.43-172.64Z"/>
          <path class="cls-19" d="m376.91,650.83s.25,42.08,3.93,84l-55.51-9.2s8.13-19.14-3.31-36.25l54.9-38.54Z"/>
          <path class="cls-19" d="m270.31,725.63c-13.94,10.19-15.54,34.55-10.57,49.76,5.72,17.48,7.98,39.78,13.71,65.05,7.75,34.25,13.01,60.63,21.65,94.64,7.16,28.13,120.19,5.46,120.19,5.46l40.52-138.44s6.97-36.14-25.77-48.17c0,0-34.49-18.62-59.74-27.18-22.3-7.55-30.38-8.26-53.26-6.85,0,0-30.67,1.12-46.73,5.71Z"/>
          <path class="cls-41" d="m435.92,1013.34s24.05,38.82,0,82.33c-24.06,43.52-97.5,27.65-97.72-28.71-.21-55.68,50.46-76.97,97.72-53.62Z"/>
          <path class="cls-24" d="m317.04,719.91s-30.67,1.12-46.73,5.71c-14.51,10.6-14.25,31.42-11.45,47.17,5.35,30.12,10.77,60.55,13.57,91.03,1.24,13.5,4.61,40.98,5.61,54.49.98,13.11,5.13,20.34,18.55,27.27,10.2,5.26,17.78,1.08,28.9,1.38,28.26.77,56.17-2.32,84.18-5.79,1.18-.14,44.9,29.35,30.51,7.65l15.63-146.74s6.97-36.14-25.77-48.17c0,0-23.02-14.42-48.28-22.97,0,0-43.91,1.12-64.72-11.06Z"/>
          <path class="cls-5" d="m395.58,699.43l2.37-9.14s5.62-33.69,5.62-33.7c.71-4.23.16-9.74-1.05-13.87-1.32-4.5-2.38-9.24-1.72-14.22,3.22-24.13-10.3-36.13-10.3-36.13-15.73-20.67-48.45-17.78-48.47-17.78-16.97,2.57-31.79,9.59-40.24,25.07-7.66,14.04-11.83,31.16-7.28,46.83,4.98,17.18,14.61,30.6,27.35,42.79,8.15,7.79,16.49,8.75,27.16,12.66,7.43,2.71,21.65,4.3,29.54,4.35,4.14.01,15.66-1.61,17.03-6.86Z"/>
          <path class="cls-14" d="m389.12,606.36l-5.21,20.92c-5.95,2.61-8.34,4.91-7.52,12.73l1.89,17.28-4.7,1.8c.39-6.92-9.21-7.02-9.21-7.02-7.02-.4-8.21,5.58-7.81,11.33,1.04,14.95-4.4,38.7-16.94,42.87-4.95,1.65-14.28,3.37-15.85-3.34-1.91-8.2-17.44-24.48-17.44-24.48-18.65-18.06-23.33-48.9-14.51-72.46,2.67-7.12,7.92-14.55,13.39-19.79,11.63-11.13,26.28-16.6,41.72-18.61,0,0,21.27-2.59,33.22,5.8,7.4,5.21,12.27,9.97,15.44,14.12,0,0,4.53,9.61-6.47,18.83Z"/>
          <path class="cls-5" d="m371.98,673.77c-1.36,1.2-3.15,1.94-5.46,2.05-6.21.3-11.74-5.18-12.33-12.23-.6-7.05,3.95-13.02,10.16-13.32,2.94-.14,5.74,1.02,7.92,3.02,3.18,2.93,3.64,8.67,3.19,12.69-.36,3.21-1.43,6.01-3.47,7.8Z"/>
          <g>
            <path class="cls-54" d="m367.28,656.69c-.61-3.68-7.88.33-6.61,2.35.74,1.16,2.1,1.96,3.19,2.73,1.49,1.07,2.25,2.08,2.56,3.9.04.22.12.86-.09,1.02-.93.74-4.34-2.69-5.09-3.4-1.47-1.41-1.82-3.98-1.29-5.88.59-2.02,1.83-3.04,3.95-3.04,1.69,0,3.42,0,3.45,2.1,0,.04-.05.4-.08.21h0Z"/>
            <path class="cls-54" d="m365.12,660.69c.73-.84,1.52-.24,2.35.29.77.49,1.24,1.24,1.48,2.1.55,1.9.46,4.49-.54,6.25-.81,1.41-2.26,2.35-3.9,2.4-2.26.08-3.06-1.88-3.27-3.78-.05-.51-.18-1.72.3-2.07.52-.37.96.44,1.34.78.54.44,1.29.58,1.96.6,1.3.03,2.52-.71,3.27-1.71.12-.18.24-.39.3-.6.08,1.25.03,1.53-.15.85-.12-.32-.28-.6-.48-.85-.58-.83-1.5-1.38-2.14-2.16-.3-.36-.91-1.67-.54-2.09h0Z"/>
          </g>
          <path class="cls-19" d="m676.99,998.07c-2.87-4.26-.36-6.47-6.19-6.66-6.63-.22-12.58-3.49-17.08-3.37-7.84.22-37.46,7.12-17.58,24.08,4.62,3.95,17.86,21.65,27.03,16.41,13.54-7.76,8.94-4.9,15.82-21.74l-2-8.71Z"/>
          <path class="cls-19" d="m400.8,780.62c-10.37,16.16-5.69,37.66,10.46,48.03,16.15,10.38,37.65,5.69,48.02-10.46,10.38-16.16,5.69-37.65-10.46-48.03-16.14-10.37-37.65-5.69-48.02,10.46Z"/>
          <path class="cls-24" d="m444.37,909.42c4.51,47.39,7.43,163.45,7.43,163.45-16.82,44.88-177.26,7-178.19-3.23-1.12-12.25,2.17-98.5,4.65-148.93,0,0,73.91-47.51,166.12-11.29Z"/>
          <path class="cls-24" d="m422.54,750c42.26,11.89,47.51,63.03,47.51,63.03l19.08,83.99s-48.01,38.08-77.28,27.36c0,0-23.84-63.4-31.32-126.59,0,0,.3-46.42,42.01-47.79Z"/>
          <path class="cls-14" d="m398.12,605.88c-4.77,3.85-10.85,1.32-16.31.05-7.44,8.73,1.46,17.45-9.81,21.69-5.97,2.24-14.8,2.88-21.41,3.95-5.28.85-10.62-.37-14.4,3.57-4.09,4.27-.22,17.57-5.05,20.12-8.45,4.46-15.07-18.66-25.84-16.83-9.18,1.56-10.81,16.13-7.59,23.3-1.07-.94-1.84-1.33-2.41-1.63-4.38-11.41-9.97-11.61-14.8-19.73-7.48-12.58-6.22-9.58-7.71-21.66-.02-.11,1.47-5.29,1.49-5.36,3.51-12.86,9.53-15.05,12.41-20.51,3.04-5.76,7.75-9.8,11.65-14.87,3.6-4.68,5.41-10.97,9.54-15.15,6.27-6.35,16.56-9.53,25.19-10.66,9.3-1.22,18.14,4.55,27.35,2.93,3.78-.66,7.32-4.09,11.11-3.88,4.62.26,7.83,4.85,11.82,6.64,7.43,3.34,19.14,1.99,25.48,7.22,7.02,5.78,5.51,14.13,1.19,21.22-2.42,3.97-7.34,6.26-9.52,10.37-.61,1.14-2.25,9.1-2.4,9.22Z"/>
        </g>
        <g>
          <path class="cls-19" d="m1703.7,572.11s-38.51,67.36-68.95,143.31c0,0,.56,14.45,11.2,9.98,10.63-4.45,96.51-126.08,96.6-137.16.22-28.46-38.85-16.13-38.85-16.13Z"/>
          <path class="cls-19" d="m1614.21,744.33l9.28-3.15s-15.71,9.67-22.93,5.83c0,0-1.68-.44-.11-3.1,0,0,14.94-5.19,20.98-9.15,0,0-13.82,8.23-24.78,10.46,0,0-5.02-1.44-1.29-5.32-3.79-.26-1.59-3.39-1.59-3.39,0,0,2.52-2.65,8.95-7.07,0,0,9.85-6.88,20.48-16.3,0,0-11.85-3.4-9.77-9.73l17.67,3.3,16.48,4.58,4.71,8.74-11.22,14.37s-12.17,9.89-19.95,12.6c0,0-22.83,6.19-6.92-2.66Z"/>
        </g>
        <g class="cls-31">
          <path class="cls-36" d="m1226.01,976.67c.03-3.07,1.62-5.86,4.96-8.11.53-.36,1.09-.68,1.68-.99.18-.1.37-.18.56-.27.42-.2.84-.4,1.28-.58.11-.04.21-.1.32-.14.09-.04.2-.07.3-.1.7-.27,1.42-.52,2.16-.74.01,0,.03-.01.04-.01,0,0,0,0,0,0,.75-.22,1.54-.41,2.33-.59.09-.03.18-.06.28-.07.12-.02.24-.04.36-.07.93-.2,1.87-.38,2.84-.55.03,0,.06,0,.09-.01.1-.02.21-.03.31-.05.96-.15,1.93-.29,2.92-.43.13-.01.26-.04.39-.05,1.06-.14,2.13-.26,3.2-.38.06-.01.12-.02.19-.02.24-.03.48-.05.72-.09.72-.08,1.44-.16,2.16-.24,1.01-.12,2-.24,3-.37.2-.02.4-.05.6-.07.99-.13,1.97-.27,2.93-.43.51-.08,1.03-.17,1.53-.26,1.04-.2,2.07-.41,3.11-.63.19-.04.39-.08.58-.13.75-.16,1.49-.34,2.22-.53.02,0,.04-.01.07-.02.75-.19,1.49-.39,2.22-.61.23-.07.45-.13.68-.2.51-.15,1.01-.31,1.51-.48.25-.08.5-.16.74-.25.5-.17.99-.35,1.46-.54.2-.07.41-.15.61-.22.64-.26,1.26-.52,1.85-.79.94-.43,5.54-3.09,8.22-5.36l-.6,68.55c-2.69,2.28-7.29,4.93-8.22,5.36-.6.28-1.23.54-1.87.79-.05.02-.09.04-.14.06-.14.05-.28.1-.42.15-.5.19-1,.37-1.52.55-.24.09-.47.17-.72.24-.5.16-1,.32-1.51.47-.16.05-.31.1-.46.15-.08.03-.16.04-.24.06-.73.21-1.46.41-2.21.61-.03,0-.06.01-.1.02-.72.19-1.46.36-2.2.53-.08.02-.16.04-.24.05-.12.03-.24.05-.36.07-1.03.23-2.07.44-3.1.63-.42.08-.85.15-1.28.23-.09.02-.18.02-.27.04-.95.15-1.92.29-2.9.42-.22.03-.44.05-.65.08-.96.12-1.92.24-2.9.35-.03,0-.06,0-.09,0-.69.08-1.37.16-2.06.24-.34.04-.69.08-1.03.12-1.06.12-2.11.24-3.16.38-.12.01-.25.03-.38.05-.99.13-1.96.27-2.93.43-.13.02-.26.04-.39.06-.97.16-1.92.35-2.85.55-.2.04-.41.08-.61.13-.8.18-1.59.38-2.35.6h-.02c-.75.22-1.48.47-2.19.75-.21.08-.41.16-.62.24-.44.18-.87.37-1.29.58-.19.09-.38.18-.56.27-.58.31-1.15.63-1.68.99-3.34,2.25-4.93,5.04-4.96,8.11l.6-68.55Z"/>
          <path class="cls-36" d="m958.27,1041.28c-.03-.13-.05-.26-.08-.39-.02-.12-.05-.24-.08-.35,0-.04,0-.08-.02-.12-.03-.18-.05-.37-.07-.54-.02-.14-.03-.27-.04-.41-.01-.19-.02-.38-.03-.58,0-.11-.01-.21-.01-.33v-.13l.6-68.56c0,.16,0,.31.01.47,0,.19,0,.38.02.57,0,.13.03.27.05.41.02.18.04.36.07.54.03.16.06.32.09.47.02.13.05.26.08.4.04.16.09.32.13.49.04.12.07.25.11.37.02.07.05.13.07.19.16.47.36.93.58,1.38,0,.01,0,.02.01.03.22.43.48.85.76,1.25.05.07.09.13.14.2.28.39.59.78.93,1.15.1.1.19.21.29.31.1.11.21.22.32.33.12.12.26.24.39.37.12.11.24.21.36.32.12.1.23.19.35.29.21.17.43.33.66.5.12.09.23.17.35.25.26.18.52.35.79.51.1.07.2.13.3.19.24.15.5.29.75.42.12.06.23.13.34.19.38.19.77.38,1.17.56.78.33,1.59.62,2.42.89.28.08.57.15.85.24.57.16,1.13.33,1.71.47.15.04.31.07.47.1.66.15,1.32.29,2,.4.27.05.54.09.82.13.63.1,1.27.19,1.91.27.21.03.42.05.63.08.84.1,1.68.18,2.54.25.53.04,1.08.07,1.62.1.46.03.91.06,1.37.09.55.03,1.11.04,1.67.07.45.01.89.04,1.35.05,1.07.03,2.15.05,3.23.06h.09c1.27.02,2.54.03,3.82.04.81,0,1.62.02,2.43.03.4,0,.8.01,1.2.02.69.01,1.38.03,2.06.04.17,0,.35,0,.53.01.3,0,.6.03.9.03.52.02,1.04.04,1.56.06.49.02.97.05,1.46.08.5.03,1,.06,1.5.1.17.01.34.03.51.04h0s0,0,0,0c.56.04,1.12.1,1.67.16.11.01.23.02.34.03.72.08,1.44.16,2.14.27.08.01.16.03.25.05,1.05.15,2.08.33,3.09.55.03,0,.06.01.09.02.03,0,.07.02.1.03.04.01.09.02.14.04.07.02.14.04.22.06.06.02.12.04.18.05.09.03.19.05.29.09.07.02.14.04.22.07.11.04.24.07.36.12.07.02.15.04.23.07.13.04.28.09.43.14.09.03.17.05.26.09.15.05.31.1.47.16.09.03.19.06.28.1.17.05.35.12.52.18.1.04.2.07.3.1.18.06.36.13.54.19.12.04.23.08.35.12.16.06.33.12.51.18.14.05.28.1.42.15.16.06.33.12.5.18.15.05.3.11.45.16.17.06.34.13.51.19.15.06.3.12.45.17.17.07.34.13.51.2.15.05.3.12.46.18.17.06.34.13.51.19.15.06.3.12.45.18.17.07.34.14.51.21.15.06.3.12.44.18.18.07.36.15.54.22.13.05.26.11.39.16.3.13.6.26.89.39.43.19.84.38,1.23.57l-.6,68.55c-.39-.18-.8-.37-1.22-.57-.29-.13-.59-.25-.89-.39-.1-.04-.2-.08-.3-.12-.21-.09-.42-.18-.63-.27-.12-.05-.24-.1-.37-.14-.2-.08-.39-.16-.59-.24-.14-.05-.27-.11-.41-.16-.19-.07-.37-.15-.55-.22-.14-.05-.29-.11-.43-.16-.18-.07-.36-.14-.54-.21-.15-.06-.3-.12-.45-.17-.17-.06-.34-.13-.51-.2-.15-.05-.29-.1-.44-.16-.17-.06-.35-.13-.52-.19-.14-.05-.28-.1-.41-.14-.17-.06-.34-.12-.5-.18-.15-.05-.3-.11-.44-.16-.14-.05-.28-.1-.42-.15-.15-.05-.29-.1-.44-.15-.13-.04-.26-.09-.39-.13-.13-.05-.26-.09-.39-.13-.12-.04-.25-.09-.38-.12-.12-.04-.23-.08-.34-.12-.12-.04-.24-.07-.35-.11-.11-.04-.2-.07-.3-.1-.1-.04-.2-.07-.29-.1-.1-.03-.18-.05-.27-.08-.08-.03-.16-.05-.24-.07-.08-.03-.14-.04-.21-.06-.07-.02-.14-.04-.2-.06-.05-.01-.1-.02-.15-.04-.07-.02-.14-.04-.19-.05-1.01-.23-2.04-.4-3.1-.56-.78-.12-1.56-.23-2.37-.31-.13-.01-.27-.03-.41-.04-.7-.07-1.41-.13-2.12-.19-.49-.04-.99-.07-1.49-.1-.49-.03-.97-.05-1.47-.08-.51-.03-1.02-.04-1.53-.06-.49-.01-.97-.03-1.46-.05-.66-.01-1.33-.03-2-.04-.42,0-.84-.02-1.26-.02-.8,0-1.6-.02-2.41-.03-1.05-.01-2.1-.02-3.14-.04-.27,0-.53,0-.79,0-1.06-.01-2.13-.04-3.18-.07h-.16s0,0,0,0c-.44-.01-.88-.04-1.31-.05-.53-.02-1.05-.04-1.57-.06-.47-.03-.94-.06-1.42-.09-.52-.03-1.05-.06-1.56-.1-.05,0-.12,0-.17-.01-.8-.07-1.6-.15-2.39-.24-.2-.02-.4-.05-.6-.07-.4-.05-.79-.1-1.19-.15v-.02h0v.02c-.26-.04-.5-.09-.76-.13-.27-.04-.54-.09-.8-.13-.68-.12-1.34-.26-2-.4-.16-.04-.32-.06-.47-.1-.05-.01-.09-.02-.13-.03-.55-.13-1.07-.29-1.6-.45-.28-.08-.56-.15-.83-.23-.83-.27-1.64-.56-2.42-.89-.41-.18-.79-.37-1.17-.56-.13-.07-.26-.14-.39-.21-.24-.13-.47-.26-.7-.39-.03-.02-.06-.03-.09-.05-.09-.05-.16-.11-.25-.16-.26-.16-.51-.32-.76-.49-.13-.08-.25-.18-.37-.26-.22-.16-.44-.32-.64-.49-.07-.06-.14-.1-.21-.16h0s0,0,0,0c-.05-.04-.1-.09-.15-.13-.12-.1-.23-.21-.35-.31-.14-.13-.27-.25-.4-.38-.11-.1-.22-.21-.32-.32-.07-.07-.14-.14-.21-.21-.03-.04-.05-.07-.08-.1-.34-.38-.65-.76-.93-1.16-.02-.03-.04-.05-.05-.07-.03-.04-.05-.08-.08-.12-.28-.41-.54-.83-.76-1.25,0,0,0,0,0-.01,0,0,0-.02-.01-.03-.23-.44-.41-.9-.58-1.36-.01-.04-.04-.08-.05-.12v-.02h0v.02s-.02-.06-.03-.09c-.04-.12-.07-.24-.11-.37-.05-.16-.1-.32-.14-.49Z"/>
          <polygon class="cls-7" points="932.43 1056.08 931.83 1124.63 1226.59 1248.66 1227.19 1180.11 932.43 1056.08"/>
          <polygon class="cls-36" points="1227.19 1180.11 1226.59 1248.66 1456.53 1093.51 1457.13 1024.95 1227.19 1180.11"/>
          <path class="cls-37" d="m1457.13,1024.95l-121.95-51.31c-4.15,2.44-9.05,6.62-9.53,7.23-5.7,7.5,1.65,17.75-7.91,24.2-11.78,7.94-40.74,6.21-64.7-3.87-.68-.29-1.34-.57-1.99-.87-22.51-10.04-31.52-24.05-20.09-31.77,7.31-4.94,19.93-4.62,30.19-6.52,5.32-.98,10.79-2.44,15.06-4.39.94-.43,5.54-3.09,8.22-5.36l-122.08-51.38-95.23,64.27c-1.97-.66-4.09-1.54-5.89-2.35-2.15-.96-3.85-1.81-4.29-2.09-3.74-2.3-6.54-5.23-8.45-8.06-3.63-5.39-3.27-11.96-12.17-15.93-15.54-6.55-42.92-1.47-61.62,11.15-18.48,12.47-21.54,27.64-7.02,34.12,12.76,5.38,31.94,1.58,46.12,4.71,1.08.24,7.81,2.49,12.52,4.59.43.19.84.38,1.23.57l-95.13,64.18,294.76,124.03,229.94-155.16Z"/>
        </g>
        <g>
          <path class="cls-20" d="m1627.42,1740.09c0,41.38-75.38,74.91-168.36,74.91s-168.36-33.53-168.36-74.91,75.38-74.91,168.36-74.91,168.36,33.54,168.36,74.91Z"/>
          <g>
            <g>
              <path class="cls-53" d="m1373.72,1737.8s-17.86-3.27-12.83,11.31c0,0,41.69,17.9,70.81,13.87,0,0,20.46-.69,17.26-22.89l.34-18.04-27.45,5.2,1.56,17.15-49.68-6.59Z"/>
              <path class="cls-4" d="m1448.96,1740.09c.02,2.86-.87,5.58-2.74,7.74-7.19,8.28-21.31,8.53-31.25,7.9-15.74-1-32.13-3.38-47.56-6.65-3.4-.72-4.35-1.83-4.39-2.83,1.78-3.97,4.98-7.4,10.7-8.44l-15.2-1.94c-14.03-.5-20.4,2.72-23.67,4.84-3.88,11.1,15.02,18.51,15.02,18.51,0,0,20.07,7.6,44.27,12.36,0,0,53.37,12.59,59.82-3.83l-5-27.64Z"/>
            </g>
            <g>
              <path class="cls-53" d="m1479.74,1713s-17.86-3.26-12.83,11.3c0,0,41.69,17.9,70.81,13.87,0,0,20.47-.69,17.26-22.89l.34-18.04-27.46,5.19,1.56,17.15-49.68-6.58Z"/>
              <path class="cls-4" d="m1554.98,1715.28c.02,2.86-.87,5.58-2.74,7.73-7.19,8.29-21.31,8.54-31.25,7.9-15.74-1-32.13-3.39-47.56-6.65-3.4-.72-4.35-1.83-4.39-2.83,1.78-3.97,4.98-7.4,10.7-8.44l-15.2-1.94c-14.03-.5-20.4,2.71-23.67,4.84-3.88,11.1,15.02,18.5,15.02,18.5,0,0,20.07,7.6,44.27,12.36,0,0,53.37,12.58,59.82-3.83l-5-27.64Z"/>
            </g>
            <g>
              <g>
                <path class="cls-8" d="m1474.8,1231.08c0,28.13,22.82,50.96,50.96,50.96s50.96-22.83,50.96-50.96-22.82-50.96-50.96-50.96-50.96,22.82-50.96,50.96Z"/>
                <path class="cls-8" d="m1557.83,1476.4s-.71,12.81-23.72,13.13c0,0-21.79,7.43-31.19-20.94-37.06-111.72-27.27-228.3-27.27-228.3,0,0,52.33-29.15,101.07-9.21,0,0-7.88,146.64-18.89,245.32Z"/>
              </g>
              <path class="cls-8" d="m1502.91,1468.59s17.95,241.45,19.63,250.09c17.52,11.12,32.99-.3,32.99-.3-.09-11.85,12.82-110.58,14.16-129.12,2.29-31.87,6.12-72.13-14.02-117.93l-52.76-2.73Z"/>
              <g>
                <path class="cls-29" d="m1410.13,1483.77s-4.91,11.85-26.73,4.52c0,0-23.02-.2-22.49-30.08,2.04-117.69,53.61-239.66,53.61-239.66,0,0,58.08-5.55,97.47,29.41,0,0-58.78,146.35-101.86,235.81Z"/>
                <path class="cls-29" d="m1415.82,1214.19c-9.32,26.55,4.65,55.64,31.2,64.96,26.55,9.32,55.64-4.64,64.97-31.2,9.32-26.55-4.65-55.64-31.21-64.96-26.56-9.32-55.64,4.65-64.96,31.2Z"/>
              </g>
              <path class="cls-29" d="m1576.72,1223.66c-6.16-56.67-34.59-82.97-34.59-82.97l-98.51-12.44s-27.16,47.25-30,95.41c11.77,32.12,53.74,41.48,53.74,41.48l31.87,9.46s72.22-10.97,77.48-50.94Z"/>
              <path class="cls-29" d="m1365.45,1481.65s48.86,253.65,51.8,261.93c-1.29-.62,23.09,11.21,33.89-4.06-1.84-11.7-2.87-140.54-4.29-159.07-2.45-31.86-2.11-61.59-28.81-103.9,0,0-66.71-47.76-52.59,5.1Z"/>
            </g>
            <g>
              <path class="cls-53" d="m1584.01,1037.53s-17.95,21.13-53.63,72.15l6.17,10.46s61.13-30.79,80.63-65.36l-33.16-17.25Z"/>
              <path class="cls-53" d="m1533.48,961.92s46.02,100.41,73.65,96.6c0,0,9.54.6,11.45-6.59,0,0,19.52-17.31-61.64-142.17,0,0-7.93-10.61-24.17-7.87,0,0-24.65,16.29.71,60.03Z"/>
            </g>
            <rect class="cls-38" x="1459.06" y="883.32" width="49.74" height="52.87"/>
            <path class="cls-19" d="m1428.29,884.52l-1.87-8.45s-3.72-30.96-3.72-30.96c-.47-3.89.39-8.87,1.84-12.58,1.58-4.03,2.92-8.3,2.53-12.86-1.86-22.14,12.4-32.36,12.4-32.36,16.98-18.02,49.69-13.7,49.7-13.7,16.91,3.21,31.39,10.37,39,24.9,6.9,13.17,10.11,28.98,4.66,43.01-5.97,15.39-16.41,27.11-29.9,37.55-8.64,6.68-17.06,7.12-28.01,10.13-7.62,2.09-21.99,2.8-29.92,2.44-4.16-.2-15.64-2.27-16.72-7.12Z"/>
            <path class="cls-35" d="m1450.94,855.86c2.46-3.48,11.39-5.63,11.4-5.63,10.8,0,9.39,14.41,10.4,20.66.33,2.04.72,4.12,1.19,6.2,5.14,18.32,20.54,18.17,33.71,20.38.49-.29,1-.58,1.54-.87,2.38-8.12,9.96-16.56,9.96-16.56,19.77-17.09,26.22-47.8,18.69-71.97-2.28-7.31-7.14-15.07-12.33-20.63-11.05-11.84-25.46-18.17-40.85-21.06-15.3-2.88-70.05,4.54-55.12,37.79,0,0,22.53,25.99,21.41,51.71"/>
            <g>
              <g>
                <path class="cls-16" d="m1450.94,855.86c1.95-4.94,6.77-8.75,12.19-7.13,3.98,1.2,6.35,4.7,5.96,8.79-.08.89-.28,1.77-.36,2.65-1.56,9.48-11.57,13.1-11.57,13.1"/>
                <path class="cls-1" d="m1462.12,853.21c-.55-.39-1.7-.61-2.4-.65-3.62-.23-6.55,5.36-2.92,6.36,1.37,1.33-.05,2.87-.05,2.87-1.25,1.36-2.93,3.31-2.55,5.22.23,1.13,1.49,1.74,2.63,2.02.91.23,1.09-.49.37-.83-.55-.27-1.02-.68-1.38-1.13-.03-.07-.07-.13-.11-.2-.04-.04-.06-.09-.09-.14-.12-.27-.12-.55-.04-.83.82.58,2.18.71,2.81-.03.69-.83.16-2.12.4-3.07.17-.66.48-1.29.84-1.88,1.66-2.77-1.33-3.24-1.33-3.24-.46,0-.81.04-1.1.08-1.52-.79.18-3.07,1.1-3.44,1.08-.42,2.39-.27,3.16.55.77.84,1.08,2.14,1.01,3.2-.08,1.31-.41,2.62-.99,3.84-.33.68-.75,1.49-1.08,2.18-.38.77.53,1.12.9.33.8-1.64,2.28-4.04,2.59-6.31.25-1.88-.09-3.69-1.78-4.9Z"/>
                <path class="cls-1" d="m1450.94,855.86s.43-.62,1.14-1.74c.33-.58.95-1.08,1.5-1.74.53-.6,1.49-1.28,2.29-1.78.93-.47,1.95-.97,3.1-1.12,1.14-.15,2.35-.15,3.54.24.4.1,1.32.49,1.79.76.48.3.96.64,1.43,1.1.89.87,1.58,1.97,1.89,3.22.3,1.26.31,2.46.06,4l-.13,1.09-.02.14v.02c0-.07-.03.16.02-.13v.03s-.02.07-.02.07l-.05.27-.11.54c-.11.75-.33,1.32-.52,1.92-.44,1.19-1,2.36-1.69,3.36-.66,1.02-1.44,1.9-2.18,2.7-1.52,1.55-3,2.7-4.1,3.4-1.09.72-1.76,1.08-1.76,1.08,0,0,.75-.15,1.98-.65,1.21-.53,2.99-1.31,4.83-2.77.9-.74,1.88-1.58,2.71-2.65.88-1.05,1.65-2.27,2.24-3.7.29-.73.59-1.5.73-2.17l.14-.52.07-.27.02-.07.04-.21.03-.14.16-1.09c.26-1.36.36-3.21-.05-4.87-.45-1.68-1.43-3.19-2.66-4.34-.33-.28-.63-.56-.98-.8l-1.14-.64c-.81-.37-1.23-.54-2.19-.77-1.53-.42-3.11-.26-4.48.06-1.41.32-2.54,1.06-3.52,1.76-.99.83-1.63,1.5-2.2,2.37-.48.83-1.01,1.49-1.23,2.11-.47,1.23-.71,1.96-.71,1.96Z"/>
              </g>
              <g>
                <path class="cls-3" d="m1457.16,870.96c0,1.66-1.35,3.01-3.02,3.01s-3.01-1.35-3.01-3.01,1.35-3.02,3.01-3.02,3.02,1.35,3.02,3.02Z"/>
                <path class="cls-45" d="m1454.87,872.56c-1.32,0-2.38-1.07-2.38-2.39,0-1.06.7-1.92,1.66-2.23h0c-1.66,0-3.01,1.35-3.01,3.02s1.35,3.01,3.01,3.01,3.02-1.35,3.02-3.01c0-.07-.02-.15-.02-.21-.26,1.04-1.15,1.82-2.27,1.82Z"/>
              </g>
            </g>
            <path class="cls-4" d="m1588.69,1164.32c-.19-.28-54.91-78.79-54.91-78.79-2.56-11.58,3.21-34.62,3.21-34.62l17.55-120.75c-2.08-13.84-3.04-31.41-21.77-28.26-13.21,2.22-15.82,4.06-23.96,6.68,2.39,11.21-16.97,18.42-16.97,18.42-26.62,11.5-32.78,3.92-32.78,3.92-7.09,3.84-31.05,15.8-37.27,20.92-6.46,5.32-10.37,13.59-8.34,27.53l19.16,114.45-3.37,28.43-35,88.75c10.82-3.88,22.65-5.45,34.1-4.07,10.88,1.3,20.26,7.72,31.07,8.92,16.33,1.79,28.46-4.1,40.78-11.91,14.98-3.23,31.02-8.43,47.21-16.59.34,0,.68,0,1.03,0,12.22.07,26.05-.15,35.07-9.71,1.9-2.02,7.49-9.97,5.18-13.29Z"/>
            <path class="cls-19" d="m1399.17,1135.03l.32-139.03c3.38-38.09,22.3-44.18,22.3-44.18,38.24-4.48,32.35,66.38,32.35,66.38l-15.96,119.77"/>
            <path class="cls-19" d="m1277.44,1211.04c17.54-9.39,19.11-12.42,22.21-16.83,13.33-18.95-13.62-18.35-20.41-16.81-3.89.89-4.13,10.15-16.22,21.46,0,0-18.99,11.02-23.66,10.24,0,0-4.87.7-4.87,4.2,0,0,13.33,7.88,42.95-2.25Z"/>
            <path class="cls-19" d="m1402.04,1120.37l-119.08,65.18c-5.14,14.33,1.47,16.39,1.47,16.39l92.19-26.52c39.35-10.54,54.95-27.06,54.95-27.06,0,0,17.21-11.92-4.75-29.68,0,0-10-7.91-24.79,1.69Z"/>
            <path class="cls-35" d="m1440.37,847.35c3.09,23.06-.39,53.57,11.1,78.78,5.11,11.22,10.76,16.78,7.69,29.79-2.51,10.65-7.55,20.7-10.28,31.73-6.04,24.34,2.16,48.13,30.54,39.31,13.6-4.23,15.12-4.16,27.51.64,10.4,4.03,20.19,5.15,30.53.12,16.04-7.81,11.21-19.62,20.2-31.44,6.85-9.01,16.53-8.79,21.69-20.9,6.23-14.62-1.19-22.42-8.78-34.82-7.9-12.92-9.16-21.43-6.56-37,2.18-13.09-1.05-19.7-5.38-31.73-4.44-12.33-2.51-23.07-4.61-35.43-4.16-24.45-17.52-57.62-43.13-64.8-12.55-3.51-28.77-6.26-40.85-1.83-16.45,6.03-34.77,12.46-34.05,32.69.73,20.81,1.66,24.35,4.4,44.89Z"/>
            <path class="cls-19" d="m1282.42,1176.92s3.34,9.76-8.81,7.37l-11.89-9.06s-3.69-1.97-2.39-5.51c0,0,1.42-2.02,5.22-.01l17.87,7.21Z"/>
          </g>
        </g>
      </g>
      <g>
        <path class="cls-2" d="m1552.71,87.15c0,22.7-18.4,41.11-41.12,41.11s-41.11-18.41-41.11-41.11,18.41-41.12,41.11-41.12,41.12,18.4,41.12,41.12Z"/>
        <path class="cls-2" d="m270.52,1815c0,22.71-18.4,41.12-41.11,41.12s-41.12-18.41-41.12-41.12,18.41-41.12,41.12-41.12,41.11,18.41,41.11,41.12Z"/>
        <path class="cls-25" d="m229.4,400.04c0,16.26-13.18,29.43-29.43,29.43s-29.43-13.17-29.43-29.43,13.18-29.42,29.43-29.42,29.43,13.17,29.43,29.42Z"/>
        <path class="cls-25" d="m1924.83,620.94c0,16.25-13.18,29.42-29.43,29.42s-29.43-13.17-29.43-29.42,13.17-29.43,29.43-29.43,29.43,13.17,29.43,29.43Z"/>
        <circle class="cls-18" cx="1081.45" cy="337.12" r="29.43" transform="translate(78.37 863.44) rotate(-45)"/>
        <path class="cls-13" d="m105.5,1018.45c0,16.25-13.17,29.42-29.43,29.42s-29.42-13.17-29.42-29.42,13.18-29.43,29.42-29.43,29.43,13.17,29.43,29.43Z"/>
        <path class="cls-13" d="m1948.4,1211.98c0,16.25-13.17,29.42-29.43,29.42s-29.42-13.17-29.42-29.42,13.18-29.43,29.42-29.43,29.43,13.17,29.43,29.43Z"/>
        <path class="cls-24" d="m890.09,29.42c0,16.25-13.17,29.43-29.42,29.43s-29.43-13.17-29.43-29.43,13.17-29.42,29.43-29.42,29.42,13.17,29.42,29.42Z"/>
        <path class="cls-24" d="m1812.41,1668.44c0,16.25-13.17,29.43-29.43,29.43s-29.42-13.17-29.42-29.43,13.17-29.42,29.42-29.42,29.43,13.17,29.43,29.42Z"/>
      </g>
      <g>
        <g>
          <line class="cls-32" y1="1247.98" x2="92.26" y2="1247.98"/>
          <line class="cls-32" x1="106.02" y1="1247.98" x2="152.15" y2="1247.98"/>
        </g>
        <g>
          <line class="cls-33" x1="1787.93" y1="1444.88" x2="1895.4" y2="1444.88"/>
          <line class="cls-33" x1="1911.43" y1="1444.88" x2="1965.17" y2="1444.88"/>
        </g>
        <g>
          <line class="cls-32" x1="921.44" y1="1795.17" x2="829.16" y2="1795.17"/>
          <line class="cls-32" x1="815.42" y1="1795.17" x2="769.29" y2="1795.17"/>
        </g>
        <g>
          <line class="cls-32" x1="1700.82" y1="199.01" x2="1739.54" y2="199.01"/>
          <line class="cls-32" x1="1749.51" y1="199.01" x2="1782.98" y2="199.01"/>
          <line class="cls-32" x1="1655.88" y1="199.01" x2="1689.34" y2="199.01"/>
        </g>
        <line class="cls-32" x1="1827.42" y1="850.1" x2="1963.38" y2="850.1"/>
        <g>
          <line class="cls-32" x1="1121.62" y1="159.58" x2="1134.49" y2="172.44"/>
          <line class="cls-32" x1="1143.56" y1="181.51" x2="1156.42" y2="194.38"/>
          <line class="cls-32" x1="1156.42" y1="159.58" x2="1143.56" y2="172.44"/>
          <line class="cls-32" x1="1134.49" y1="181.51" x2="1121.62" y2="194.38"/>
        </g>
        <g>
          <line class="cls-32" x1="41.28" y1="592.57" x2="54.14" y2="605.43"/>
          <line class="cls-32" x1="63.21" y1="614.51" x2="76.08" y2="627.37"/>
          <line class="cls-32" x1="76.08" y1="592.57" x2="63.21" y2="605.43"/>
          <line class="cls-32" x1="54.14" y1="614.51" x2="41.28" y2="627.37"/>
        </g>
        <g>
          <line class="cls-32" x1="1010.16" y1="1394.72" x2="1023.02" y2="1407.59"/>
          <line class="cls-32" x1="1032.1" y1="1416.66" x2="1044.96" y2="1429.52"/>
          <line class="cls-32" x1="1044.96" y1="1394.72" x2="1032.1" y2="1407.59"/>
          <line class="cls-32" x1="1023.02" y1="1416.66" x2="1010.16" y2="1429.52"/>
        </g>
        <path class="cls-32" d="m395.64,340.56c0,8.82-7.14,15.97-15.96,15.97s-15.97-7.15-15.97-15.97,7.15-15.97,15.97-15.97,15.96,7.15,15.96,15.97Z"/>
        <path class="cls-32" d="m1449.21,415.46c0,8.82-7.14,15.97-15.96,15.97s-15.96-7.15-15.96-15.97,7.14-15.97,15.96-15.97,15.96,7.15,15.96,15.97Z"/>
      </g>
    </g>
  </g>
</svg>