<svg width="632" height="134" viewBox="0 0 632 134" fill="none" xmlns="http://www.w3.org/2000/svg">
    <mask id="mask0_300_9024" style="mask-type:alpha" maskUnits="userSpaceOnUse" x="0" y="0" width="632" height="134">
        <rect width="632" height="134" fill="url(#paint0_linear_300_9024)" />
    </mask>
    <g mask="url(#mask0_300_9024)">
        <rect x="8" y="8" width="616" height="126" rx="6" fill="white" fill-opacity="0.05" />
        <rect x="8.5" y="8.5" width="615" height="125" rx="5.5" stroke="url(#paint1_linear_300_9024)" stroke-opacity="0.1" />
        <circle opacity="0.2" cx="28" cy="24" r="4" fill="white" />
        <circle opacity="0.2" cx="44" cy="24" r="4" fill="white" />
        <circle opacity="0.2" cx="60" cy="24" r="4" fill="white" />
        <path d="M624 39H8V41H624V39Z" fill="white" fill-opacity="0.12" mask="url(#path-4-outside-1_300_9024)" />
        <rect x="20" y="52" width="8" height="18" rx="4" fill="white" fill-opacity="0.05" />
        <rect x="20.5" y="52.5" width="7" height="17" rx="3.5" stroke="url(#paint2_linear_300_9024)" stroke-opacity="0.1" />
        <rect x="40" y="52" width="212" height="18" rx="9" fill="white" fill-opacity="0.05" />
        <rect x="40.5" y="52.5" width="211" height="17" rx="8.5" stroke="url(#paint3_linear_300_9024)" stroke-opacity="0.1" />
        <rect x="40" y="78" width="72" height="18" rx="9" fill="white" fill-opacity="0.05" />
        <rect x="40.5" y="78.5" width="71" height="17" rx="8.5" stroke="url(#paint4_linear_300_9024)" stroke-opacity="0.1" />
        <rect x="120" y="78" width="96" height="18" rx="9" fill="white" fill-opacity="0.05" />
        <rect x="120.5" y="78.5" width="95" height="17" rx="8.5" stroke="url(#paint5_linear_300_9024)" stroke-opacity="0.1" />
        <rect x="224" y="78" width="96" height="18" rx="9" fill="#FFB1B1" fill-opacity="0.24" />
        <rect x="224.5" y="78.5" width="95" height="17" rx="8.5" stroke="url(#paint6_linear_300_9024)" stroke-opacity="0.1" />
        <rect x="260" y="52" width="24" height="18" rx="9" fill="#8CD6F4" fill-opacity="0.24" />
        <rect x="260.5" y="52.5" width="23" height="17" rx="8.5" stroke="url(#paint7_linear_300_9024)" stroke-opacity="0.1" />
        <rect x="455" y="52" width="18" height="18" rx="9" fill="#8CD6F4" fill-opacity="0.24" />
        <rect x="455.5" y="52.5" width="17" height="17" rx="8.5" stroke="url(#paint8_linear_300_9024)" stroke-opacity="0.1" />
        <rect x="304" y="52" width="143" height="18" rx="9" fill="#D2FB9C" fill-opacity="0.24" />
        <rect x="304.5" y="52.5" width="142" height="17" rx="8.5" stroke="url(#paint9_linear_300_9024)" stroke-opacity="0.1" />
        <rect x="340" y="78" width="78" height="18" rx="9" fill="#FCE1AA" fill-opacity="0.24" />
        <rect x="340.5" y="78.5" width="77" height="17" rx="8.5" stroke="url(#paint10_linear_300_9024)" stroke-opacity="0.1" />
        <rect x="292" y="52" width="4" height="18" rx="2" fill="#B6A3FF" fill-opacity="0.24" />
        <rect x="292.5" y="52.5" width="3" height="17" rx="1.5" stroke="url(#paint11_linear_300_9024)" stroke-opacity="0.1" />
        <rect x="328" y="78" width="4" height="18" rx="2" fill="#B6A3FF" fill-opacity="0.24" />
        <rect x="328.5" y="78.5" width="3" height="17" rx="1.5" stroke="url(#paint12_linear_300_9024)" stroke-opacity="0.1" />
        <rect x="20" y="78" width="8" height="18" rx="4" fill="white" fill-opacity="0.05" />
        <rect x="20.5" y="78.5" width="7" height="17" rx="3.5" stroke="url(#paint13_linear_300_9024)" stroke-opacity="0.1" />
        <rect x="20" y="104" width="8" height="18" rx="4" fill="white" fill-opacity="0.05" />
        <rect x="20.5" y="104.5" width="7" height="17" rx="3.5" stroke="url(#paint14_linear_300_9024)" stroke-opacity="0.1" />
    </g>
    <defs>
        <linearGradient id="paint0_linear_300_9024" x1="316" y1="38" x2="316" y2="134" gradientUnits="userSpaceOnUse">
            <stop stop-color="white" />
            <stop offset="1" stop-color="white" stop-opacity="0" />
        </linearGradient>
        <linearGradient id="paint1_linear_300_9024" x1="316" y1="8" x2="316" y2="134" gradientUnits="userSpaceOnUse">
            <stop stop-color="white" />
            <stop offset="1" stop-color="white" stop-opacity="0" />
        </linearGradient>
        <linearGradient id="paint2_linear_300_9024" x1="24" y1="52" x2="24" y2="70" gradientUnits="userSpaceOnUse">
            <stop stop-color="white" />
            <stop offset="1" stop-color="white" stop-opacity="0" />
        </linearGradient>
        <linearGradient id="paint3_linear_300_9024" x1="146" y1="52" x2="146" y2="70" gradientUnits="userSpaceOnUse">
            <stop stop-color="white" />
            <stop offset="1" stop-color="white" stop-opacity="0" />
        </linearGradient>
        <linearGradient id="paint4_linear_300_9024" x1="76" y1="78" x2="76" y2="96" gradientUnits="userSpaceOnUse">
            <stop stop-color="white" />
            <stop offset="1" stop-color="white" stop-opacity="0" />
        </linearGradient>
        <linearGradient id="paint5_linear_300_9024" x1="168" y1="78" x2="168" y2="96" gradientUnits="userSpaceOnUse">
            <stop stop-color="white" />
            <stop offset="1" stop-color="white" stop-opacity="0" />
        </linearGradient>
        <linearGradient id="paint6_linear_300_9024" x1="272" y1="78" x2="272" y2="96" gradientUnits="userSpaceOnUse">
            <stop stop-color="white" />
            <stop offset="1" stop-color="white" stop-opacity="0" />
        </linearGradient>
        <linearGradient id="paint7_linear_300_9024" x1="272" y1="52" x2="272" y2="70" gradientUnits="userSpaceOnUse">
            <stop stop-color="white" />
            <stop offset="1" stop-color="white" stop-opacity="0" />
        </linearGradient>
        <linearGradient id="paint8_linear_300_9024" x1="464" y1="52" x2="464" y2="70" gradientUnits="userSpaceOnUse">
            <stop stop-color="white" />
            <stop offset="1" stop-color="white" stop-opacity="0" />
        </linearGradient>
        <linearGradient id="paint9_linear_300_9024" x1="375.5" y1="52" x2="375.5" y2="70" gradientUnits="userSpaceOnUse">
            <stop stop-color="white" />
            <stop offset="1" stop-color="white" stop-opacity="0" />
        </linearGradient>
        <linearGradient id="paint10_linear_300_9024" x1="379" y1="78" x2="379" y2="96" gradientUnits="userSpaceOnUse">
            <stop stop-color="white" />
            <stop offset="1" stop-color="white" stop-opacity="0" />
        </linearGradient>
        <linearGradient id="paint11_linear_300_9024" x1="294" y1="52" x2="294" y2="70" gradientUnits="userSpaceOnUse">
            <stop stop-color="white" />
            <stop offset="1" stop-color="white" stop-opacity="0" />
        </linearGradient>
        <linearGradient id="paint12_linear_300_9024" x1="330" y1="78" x2="330" y2="96" gradientUnits="userSpaceOnUse">
            <stop stop-color="white" />
            <stop offset="1" stop-color="white" stop-opacity="0" />
        </linearGradient>
        <linearGradient id="paint13_linear_300_9024" x1="24" y1="78" x2="24" y2="96" gradientUnits="userSpaceOnUse">
            <stop stop-color="white" />
            <stop offset="1" stop-color="white" stop-opacity="0" />
        </linearGradient>
        <linearGradient id="paint14_linear_300_9024" x1="24" y1="104" x2="24" y2="122" gradientUnits="userSpaceOnUse">
            <stop stop-color="white" />
            <stop offset="1" stop-color="white" stop-opacity="0" />
        </linearGradient>
    </defs>
</svg>
    