<?xml version="1.0" encoding="UTF-8"?><svg id="Layer_2" xmlns="http://www.w3.org/2000/svg" xmlns:xlink="http://www.w3.org/1999/xlink" viewBox="0 0 57 169"><defs><style>.cls-1,.cls-2,.cls-3{fill:none;}.cls-4{clip-path:url(#clippath);}.cls-5,.cls-6{fill:#fff;}.cls-5,.cls-2{stroke:#6c47ff;}.cls-6,.cls-3{stroke:#f0f4f9;}.cls-2{stroke-miterlimit:10;}</style><clipPath id="clippath"><rect className="cls-1" x="12.5" y="124.5" width="32" height="32"/></clipPath></defs><g id="Layer_1-2"><path className="cls-6" d="M28.5,.5h0c15.46,0,28,12.54,28,28h0c0,15.46-12.54,28-28,28h0C13.04,56.5,.5,43.96,.5,28.5H.5C.5,13.04,13.04,.5,28.5,.5Z"/><path className="cls-5" d="M28.5,20.5h0c4.42,0,8,3.58,8,8h0c0,4.42-3.58,8-8,8h0c-4.42,0-8-3.58-8-8h0c0-4.42,3.58-8,8-8Z"/><rect className="cls-6" x=".5" y="112.5" width="56" height="56" rx="12" ry="12"/><g className="cls-4"><g><path className="cls-2" d="M28.5,128.5s0,12,12,12c0,0-12,0-12,12,0,0,0-12-12-12,0,0,12,0,12-12Z"/><path className="cls-2" d="M28.5,124.5v4"/><path className="cls-2" d="M44.5,140.5h-4"/><path className="cls-2" d="M28.5,156.5v-4"/><path className="cls-2" d="M12.5,140.5h4"/></g></g><path className="cls-3" d="M28.5,56.5h0c15.46,0,28,12.54,28,28h0c0,15.46-12.54,28-28,28h0c-15.46,0-28-12.54-28-28H.5c0-15.46,12.54-28,28-28Z"/></g></svg>