<?xml version="1.0" encoding="UTF-8"?><svg id="Layer_2" xmlns="http://www.w3.org/2000/svg" xmlns:xlink="http://www.w3.org/1999/xlink" viewBox="0 0 161 169"><defs><style>.cls-1,.cls-2,.cls-3{fill:none;}.cls-4{clip-path:url(#clippath);}.cls-5{fill:#6c47ff;}.cls-6{fill:#fff;}.cls-6,.cls-3{stroke:#f0f4f9;}.cls-2{stroke:#6c47ff;stroke-miterlimit:10;}</style><clipPath id="clippath"><rect class="cls-1" x="116.13" y="68.13" width="32" height="32" transform="translate(-20.79 118.07) rotate(-45)"/></clipPath></defs><g id="Layer_1-2"><rect class="cls-6" x=".5" y="112.5" width="56" height="56" rx="12" ry="12"/><path class="cls-3" d="M28.5,.5h0c15.46,0,28,12.54,28,28h0c0,15.46-12.54,28-28,28h0C13.04,56.5,.5,43.96,.5,28.5H.5C.5,13.04,13.04,.5,28.5,.5Z"/><path class="cls-5" d="M35.62,19.66l-2.88,2.88c-.09,.09-.21,.15-.34,.16-.13,.02-.26-.01-.36-.08-1.13-.68-2.44-1.02-3.76-.98s-2.6,.47-3.69,1.22c-.67,.47-1.25,1.05-1.71,1.71-.75,1.09-1.18,2.37-1.22,3.69-.04,1.32,.3,2.63,.98,3.76,.07,.11,.09,.24,.08,.36-.02,.13-.07,.24-.16,.33l-2.88,2.88c-.06,.06-.13,.1-.2,.13-.08,.03-.16,.04-.24,.03-.08,0-.16-.03-.23-.07s-.13-.09-.18-.16c-1.56-2.14-2.36-4.74-2.29-7.39,.07-2.65,1.02-5.2,2.7-7.25,.51-.63,1.09-1.2,1.71-1.71,2.05-1.67,4.6-2.62,7.25-2.7,2.65-.07,5.25,.73,7.39,2.29,.07,.05,.12,.11,.16,.18,.04,.07,.06,.15,.07,.23,0,.08,0,.17-.03,.24-.03,.08-.07,.15-.13,.21Z"/><path class="cls-5" d="M35.62,37.33l-2.88-2.88c-.09-.09-.21-.15-.34-.16-.13-.02-.26,.01-.36,.08-1.07,.64-2.29,.99-3.54,.99s-2.47-.34-3.54-.99c-.11-.07-.24-.09-.36-.08-.13,.02-.25,.07-.34,.16l-2.88,2.88c-.06,.06-.11,.13-.14,.21-.03,.08-.04,.16-.04,.25,0,.08,.03,.16,.07,.24,.04,.07,.1,.14,.17,.19,2.05,1.49,4.52,2.3,7.06,2.3s5.01-.8,7.06-2.3c.07-.05,.13-.11,.17-.18,.04-.07,.07-.15,.07-.24,0-.08,0-.17-.04-.25-.03-.08-.08-.15-.14-.21Z"/><path class="cls-5" d="M28.5,31.92c1.89,0,3.43-1.53,3.43-3.43s-1.53-3.43-3.43-3.43-3.43,1.53-3.43,3.43,1.53,3.43,3.43,3.43Z"/><rect class="cls-6" x="104.5" y="56.5" width="56" height="56" rx="12" ry="12"/><g class="cls-4"><g><path class="cls-2" d="M140.61,75.64s-8.49,8.49,0,16.97c0,0-8.49-8.49-16.97,0,0,0,8.49-8.49,0-16.97,0,0,8.49,8.49,16.97,0Z"/><path class="cls-2" d="M143.44,72.81l-2.83,2.83"/><path class="cls-2" d="M143.44,95.44l-2.83-2.83"/><path class="cls-2" d="M120.81,95.44l2.83-2.83"/><path class="cls-2" d="M120.81,72.81l2.83,2.83"/></g></g></g></svg>